<svg width="125" height="95" viewBox="0 0 125 95" fill="#fff" xmlns="http://www.w3.org/2000/svg">
<path d="M73.6906 26.1346C76.5734 27.0579 79.3342 28.1317 81.8442 29.7073C84.0851 31.1139 86.4035 32.4915 88.3477 34.2565C92.4443 37.9753 96.3411 41.9154 99.2757 46.6847C99.7297 47.4225 99.6063 47.9963 99.1508 48.5904C97.3392 50.9534 95.6068 53.386 93.6651 55.6376C92.2437 57.286 90.4984 58.6502 88.9728 60.2145C85.7862 63.4819 81.8939 65.676 77.7901 67.4867C75.7066 68.4059 73.4682 69.0008 71.2641 69.6139C67.6453 70.6205 63.9215 70.8136 60.2063 70.5023C57.9804 70.3159 55.7754 69.794 53.582 69.3246C50.3694 68.637 47.3707 67.3362 44.554 65.6879C42.3446 64.3949 40.0736 63.0873 38.1848 61.391C33.9458 57.5841 29.8501 53.6041 26.7374 48.7517C26.2073 47.9254 26.1556 47.2734 26.7309 46.4159C29.4426 42.3741 32.7625 38.8981 36.2554 35.5273C39.2385 32.6484 42.6183 30.439 46.253 28.564C48.6732 27.3154 51.226 26.4032 53.8782 25.7232C57.5403 24.7843 61.2396 24.3359 65.0026 24.5824C67.9265 24.774 70.817 25.2428 73.6906 26.1346ZM80.7776 38.1077C80.8887 38.2575 80.9999 38.4072 81.0925 38.6426C81.1202 38.6911 81.1479 38.7397 81.1732 38.8948C81.2602 38.9991 81.3472 39.1035 81.425 39.331C84.4099 46.5005 83.5851 53.2674 79.1832 59.6564C79.2653 59.7216 79.3475 59.7868 79.4296 59.852C80.5504 58.8984 81.6711 57.9447 82.9047 56.9777C87.4887 53.0393 88.4669 47.5914 86.4883 42.8091C85.1391 39.5482 81.1499 35.8372 79.499 36.1271C79.8413 36.5886 80.1492 37.0037 80.4545 37.4689C80.4545 37.4689 80.4969 37.4957 80.4876 37.6087C80.5862 37.7095 80.6847 37.8103 80.7642 37.954C80.7642 37.954 80.7929 37.991 80.7776 38.1077ZM73.979 50.2656C73.4366 51.4802 73.0394 52.7894 72.3221 53.8901C70.699 56.3811 68.3332 57.9335 65.4248 58.5418C64.7143 58.6904 64.4065 58.8745 64.4914 59.5894C64.5294 59.9085 64.5361 60.2314 64.5011 60.6739C64.5011 61.7974 64.5011 62.921 64.5011 64.0402C71.5672 64.159 79.1414 56.4001 79.3201 49.1558C77.8687 49.1558 76.4167 49.1888 74.9673 49.1424C74.1935 49.1177 73.942 49.4454 73.979 50.2656ZM77.2065 39.2033C76.026 37.224 74.482 35.5135 72.6848 34.1417C71.3007 33.0852 69.6195 32.3717 67.9908 31.6985C66.9364 31.2626 65.7385 31.1741 64.4814 30.9034C64.4814 32.7408 64.4642 34.3834 64.5075 36.0243C64.512 36.1916 64.8555 36.4172 65.0835 36.4993C65.9084 36.7961 66.7804 36.9754 67.5818 37.3213C70.5479 38.6014 72.5207 40.8421 73.6633 43.9365C73.757 44.0966 73.8508 44.2567 73.9231 44.5262C73.956 44.6697 73.9889 44.8133 73.9871 45.083C74.109 45.3479 74.2308 45.6129 74.4905 45.9288C74.9793 45.9183 75.4681 45.9078 76.1045 45.9407C76.9905 45.9441 77.8766 45.9425 78.7626 45.953C79.1669 45.9578 79.4793 45.8762 79.3746 45.3712C79.1901 44.4819 79.0446 43.5795 78.7821 42.7132C78.5733 42.0243 78.2145 41.381 77.9122 40.643C77.9122 40.643 77.8635 40.5859 77.8985 40.4768C77.7986 40.3399 77.6988 40.2029 77.5909 39.9743C77.5479 39.8983 77.5049 39.8223 77.4777 39.6382C77.3851 39.5315 77.2924 39.4247 77.2065 39.2033ZM55.8667 62.7235C56.7182 63.0233 57.5553 63.3769 58.4248 63.6086C59.3828 63.8639 60.3705 64.0072 61.435 64.2169C61.435 62.7268 61.4277 61.4632 61.437 60.1998C61.4468 58.8541 61.4527 58.8579 60.1274 58.5243C59.9219 58.4725 59.7329 58.3585 59.5305 58.2903C55.3834 56.8941 52.7898 54.094 51.8747 49.7925C51.7777 49.3362 51.5789 49.1652 51.1129 49.1725C49.7352 49.194 48.357 49.1752 46.9791 49.1824C46.8332 49.1831 46.6876 49.2515 46.4903 49.3015C47.3058 55.383 50.6072 59.6569 55.8667 62.7235ZM52.7622 42.627C54.1515 39.7585 56.459 37.9405 59.3975 36.8604C60.0353 36.626 60.9877 36.6643 61.2819 36.2296C61.6291 35.7168 61.4347 34.8268 61.4458 34.0998C61.4613 33.0849 61.4497 32.0695 61.4497 30.7782C59.7267 31.27 58.1959 31.6207 56.7279 32.1467C54.6769 32.8816 53.0081 34.1633 51.4679 35.7443C48.8343 38.4476 47.1224 41.5352 46.5911 45.2753C46.5309 45.6987 46.5552 45.9554 47.0796 45.9487C48.4585 45.9312 49.8384 45.9594 51.2164 45.9184C51.4238 45.9122 51.7352 45.6728 51.8069 45.4727C52.1318 44.5655 52.3879 43.6336 52.7622 42.627ZM45.0396 56.9708C43.6258 54.4096 42.875 51.6671 42.7317 48.7446C42.5496 45.0315 43.198 41.5049 45.0089 38.2305C45.499 37.3445 46.0386 36.4858 46.6169 35.511C41.9192 37.9038 38.1276 42.361 38.4452 48.1453C38.6919 52.639 43.3334 59.0559 46.5691 59.5239C46.0738 58.7069 45.5812 57.8944 45.0396 56.9708ZM58.202 40.7097C56.578 41.1351 55.5667 42.5944 55.507 44.0191C55.4306 45.843 57.0429 47.8287 58.8393 48.1301C59.1516 48.1825 59.5494 48.2314 59.794 48.0879C60.5686 47.6337 61.4113 47.1962 61.993 46.5432C62.4755 46.0015 62.7887 45.1871 62.8924 44.4532C63.183 42.3976 61.1816 40.0799 58.202 40.7097ZM56.3125 52.1197C57.0531 52.2502 57.7266 52.0234 57.9818 51.3441C58.1437 50.9134 58.0438 50.2766 57.8347 49.8411C57.5659 49.2817 56.9517 49.0376 56.3263 49.223C55.7195 49.4029 55.2243 49.7619 55.1591 50.4923C55.0872 51.2979 55.434 51.8211 56.3125 52.1197Z" fill="#fff"/>
<path d="M101.571 44.2108C101.573 38.7572 101.548 33.3757 101.586 27.9947C101.602 25.7675 100.7 24.1844 98.7641 23.069C95.4707 21.171 92.2477 19.1507 88.9553 17.2507C84.4288 14.6386 79.7541 12.2648 75.3543 9.45768C72.1143 7.39052 68.7482 5.57031 65.4442 3.63091C63.8134 2.67364 62.065 2.70733 60.4369 3.5794C57.5851 5.10693 54.6772 6.57623 52.008 8.38722C48.1157 11.0282 43.9176 13.1117 39.8836 15.4895C36.5299 17.4663 33.0992 19.3121 29.739 21.278C28.3724 22.0776 27.0218 22.9457 25.812 23.9593C24.7579 24.8424 24.2682 26.1043 24.2735 27.5412C24.2932 32.7873 24.2808 38.0334 24.2812 43.2796C24.2813 45.1488 24.4495 44.9084 22.6275 44.9118C18.7887 44.9188 14.9499 44.9139 10.9848 44.9139C10.9848 44.213 10.9373 43.5408 11.0168 42.884C11.0377 42.7108 11.4492 42.4593 11.6838 42.4566C14.3874 42.4261 17.0917 42.4581 19.7953 42.4283C21.4568 42.41 21.4036 42.8246 21.3044 40.7377C21.0239 40.7241 20.7349 40.6982 20.4459 40.6979C18.1203 40.6958 15.7946 40.683 13.4693 40.7107C12.8828 40.7177 12.6544 40.5559 12.6649 39.9365C12.6979 37.9877 12.4786 38.2128 14.3187 38.2071C16.3468 38.2008 18.3754 38.1815 20.4029 38.2181C21.108 38.2308 21.3795 38.0872 21.3695 37.2872C21.326 33.8269 21.3499 30.3654 21.3829 26.9046C21.3975 25.3766 22.1247 24.1172 22.8924 22.826C24.1844 20.6529 26.4293 19.8403 28.4191 18.6851C33.893 15.5071 39.4258 12.4309 44.9154 9.27954C49.6558 6.55822 54.3463 3.74948 59.1025 1.0563C61.8077 -0.475564 64.565 -0.219437 67.2245 1.27095C71.3891 3.60488 75.6601 5.77952 79.6532 8.37922C82.638 10.3225 85.7634 11.9858 88.8193 13.7832C92.7711 16.1075 96.8023 18.2965 100.755 20.6195C102.544 21.6708 103.566 23.4063 104.156 25.3436C104.425 26.2242 104.477 27.1942 104.489 28.1254C104.527 31.2347 104.502 34.3449 104.501 37.4547C104.501 37.6653 104.501 37.8759 104.501 38.2056C104.933 38.2056 105.3 38.2055 105.667 38.2056C107.939 38.2064 110.21 38.2228 112.482 38.1974C113.084 38.1907 113.313 38.3964 113.27 38.9956C113.232 39.5266 113.262 40.0625 113.262 40.6778C110.307 40.6778 107.454 40.6778 104.553 40.6778C104.553 41.2593 104.553 41.7602 104.553 42.3785C104.839 42.3964 105.148 42.4322 105.457 42.4327C108.35 42.4373 111.243 42.4532 114.135 42.424C114.854 42.4167 115.075 42.6814 115.058 43.3744C115.017 45.1445 115.096 44.9106 113.529 44.912C109.824 44.9152 106.119 44.9117 102.414 44.9163C101.962 44.9169 101.504 44.9583 101.571 44.2108Z" fill="#fff"/>
<path d="M112.314 51.1667C113.043 51.1667 113.694 51.1883 114.341 51.1598C114.837 51.1381 115.006 51.3804 115.05 51.8258C115.22 53.5477 115.13 53.6586 113.414 53.6609C110.763 53.6645 108.113 53.6624 105.463 53.6627C105.172 53.6628 104.881 53.6628 104.546 53.6628C104.546 54.2449 104.546 54.7464 104.546 55.3415C104.828 55.3579 105.113 55.3884 105.399 55.3889C107.697 55.3925 109.996 55.4166 112.294 55.375C113.026 55.3617 113.306 55.5492 113.278 56.3259C113.21 58.1918 113.407 57.8729 111.719 57.8827C109.344 57.8965 106.969 57.8862 104.504 57.8862C104.504 58.726 104.504 59.5004 104.504 60.2748C104.503 62.3572 104.514 64.4396 104.499 66.5219C104.478 69.4071 103.147 71.5743 100.796 73.1621C95.5849 76.6813 89.9642 79.4968 84.5246 82.6235C82.4084 83.8399 80.168 84.8808 78.1947 86.2953C75.2299 88.4204 71.9439 89.9619 68.8442 91.8348C67.539 92.6235 66.144 93.3759 64.6885 93.7767C62.6381 94.3412 60.6054 93.9308 58.7264 92.8556C55.5338 91.0287 52.3031 89.2672 49.1287 87.4095C46.5114 85.8778 43.9849 84.1903 41.3599 82.6726C37.122 80.2222 32.8335 77.8593 28.5717 75.4499C26.5242 74.2923 24.4946 73.0958 22.9682 71.2517C22.0045 70.0874 21.4013 68.7319 21.3821 67.2057C21.3436 64.1511 21.3706 61.0957 21.3706 57.9409C20.9917 57.9209 20.6535 57.8881 20.3153 57.8876C18.0707 57.8846 15.8256 57.8632 13.5818 57.905C12.8644 57.9184 12.6363 57.6879 12.6614 56.9784C12.719 55.3501 12.4163 55.3773 14.2207 55.3892C16.2218 55.4024 18.2231 55.3938 20.2244 55.3914C21.3473 55.39 21.3472 55.3869 21.34 54.246C21.339 54.0897 21.3399 53.9334 21.3399 53.6876C17.8943 53.6876 14.5003 53.6876 11.0547 53.6876C11.0547 52.8041 11.0547 52.0108 11.0547 51.1667C13.7188 51.1667 16.3129 51.1667 18.9069 51.1667C20.3943 51.1667 21.8826 51.1958 23.3688 51.154C24.0788 51.134 24.3026 51.3756 24.2982 52.0872C24.2703 56.495 24.4096 60.9081 24.2382 65.3094C24.121 68.3186 25.3423 70.2594 27.956 71.5238C29.0302 72.0435 30.1092 72.5829 31.0983 73.2445C38.1742 77.9772 45.8608 81.6592 53.1168 86.0804C55.1923 87.345 57.3195 88.5302 59.348 89.8656C61.6584 91.3866 63.9098 91.4596 66.2602 90.0171C67.6197 89.1828 69.0332 88.4369 70.4052 87.622C73.4611 85.807 76.4821 83.9321 79.5613 82.1578C84.0923 79.5469 88.676 77.0276 93.208 74.4185C95.2665 73.2334 97.2734 71.9551 99.2694 70.6659C100.85 69.6454 101.589 68.1558 101.579 66.254C101.556 61.5485 101.596 56.8427 101.554 52.1375C101.547 51.3083 101.831 51.1449 102.578 51.1526C105.796 51.1855 109.015 51.1667 112.314 51.1667Z" fill="#fff"/>
<path d="M113.936 49.445C110.071 49.445 106.288 49.4249 102.505 49.4618C101.74 49.4692 101.535 49.2292 101.552 48.4883C101.596 46.6565 101.562 46.6553 103.408 46.6558C107.434 46.6568 111.461 46.6695 115.487 46.6485C116.169 46.6449 116.456 46.8244 116.439 47.5641C116.391 49.6729 116.636 49.4425 114.584 49.445C114.395 49.4453 114.206 49.445 113.936 49.445Z" fill="#fff"/>
<path d="M17.8693 46.6554C19.7878 46.6554 21.6256 46.6747 23.4625 46.6449C24.0963 46.6346 24.3129 46.8446 24.2986 47.4884C24.2479 49.7725 24.5613 49.4328 22.3823 49.4404C18.1957 49.455 14.0089 49.4446 9.64749 49.4446C9.64749 48.6158 9.61505 47.8168 9.67819 47.0254C9.6892 46.8873 10.1016 46.6788 10.3305 46.6763C12.8162 46.6494 15.3022 46.6571 17.8693 46.6554Z" fill="#fff"/>
<path d="M60.5585 9.24316C61.104 8.17168 62.0971 7.96514 63.0448 8.0094C65.3956 8.11917 67.047 11.2399 65.7639 13.2406C64.7156 14.8752 62.6522 15.2779 61.0539 14.3114C59.4903 13.3659 59.1251 11.1827 60.208 9.64782C60.2996 9.51795 60.4083 9.40017 60.5585 9.24316ZM62.3548 12.8729C63.1303 13.2148 64.0462 12.8163 64.2667 12.0409C64.4828 11.281 64.1245 10.473 63.4656 10.2342C62.7056 9.95876 61.9647 10.2566 61.5834 10.9909C61.2098 11.7106 61.4203 12.3007 62.3548 12.8729Z" fill="#fff"/>
<path d="M62.2352 86.9384C61.7777 86.6531 61.3499 86.4337 60.9653 86.1547C59.7201 85.2515 59.367 84.1264 59.8341 82.6541C60.4163 80.8189 61.9619 79.903 63.7388 80.3403C65.394 80.7476 66.4669 82.4032 66.1555 84.1691C66.0798 84.5985 65.8383 85.0229 65.5889 85.3929C64.8494 86.4899 63.2538 87.2309 62.2352 86.9384ZM63.7663 84.6603C64.5005 83.9814 64.5647 83.1491 63.9324 82.5084C63.333 81.9011 62.4263 81.912 61.8366 82.5337C61.2103 83.1937 61.2465 83.9989 61.9542 84.6218C62.4849 85.0889 63.0806 84.981 63.7663 84.6603Z" fill="#fff"/>
<path d="M84.6357 75.5202C83.1415 77.7696 80.4178 77.317 79.4176 75.4952C78.8476 74.4572 78.9168 72.9322 79.6501 72.003C80.3809 71.0769 81.8536 70.6022 82.9041 70.9542C84.1806 71.3819 85.0318 72.4965 85.0011 73.8413C84.9886 74.3851 84.7826 74.9244 84.6357 75.5202ZM81.1961 72.976C81.1088 73.1424 81.0108 73.3042 80.936 73.4761C80.6878 74.0457 80.8258 74.5917 81.3034 74.9024C81.6143 75.1047 82.1207 75.1612 82.4934 75.0775C83.0339 74.9563 83.1495 74.4493 83.1403 73.9276C83.121 72.8373 82.5359 72.5062 81.1961 72.976Z" fill="#fff"/>
<path d="M79.4516 19.5454C80.4681 17.9907 82.2267 17.6528 83.6108 18.5284C85.0171 19.4182 85.4752 21.3545 84.6557 22.7203C83.7957 24.1536 81.9498 24.6461 80.4848 23.8332C79.1051 23.0676 78.6237 21.136 79.4516 19.5454ZM81.0908 21.7225C81.4178 21.975 81.7411 22.4289 82.0725 22.4349C82.6382 22.4451 82.9822 21.981 83.0956 21.3841C83.2 20.8339 83.152 20.2707 82.6215 20.0792C82.238 19.9408 81.6614 20.0103 81.3003 20.2152C80.7842 20.5081 80.6701 21.0557 81.0908 21.7225Z" fill="#fff"/>
<path d="M46.4196 22.6982C45.2053 24.8571 42.0587 24.6297 41.0886 22.5605C40.6447 21.6138 40.7724 19.9902 41.4397 19.2107C42.2453 18.2697 43.544 17.7035 44.97 18.3096C46.0549 18.7707 46.7971 19.8105 46.7452 21.0792C46.7237 21.6022 46.5436 22.1187 46.4196 22.6982ZM44.9119 20.772C44.4801 19.858 43.6761 19.6326 43.0233 20.2157C42.4582 20.7206 42.6288 21.3268 42.8931 21.8201C43.06 22.1318 43.6128 22.5068 43.8743 22.4332C44.2452 22.3288 44.5329 21.857 44.8039 21.5024C44.9188 21.352 44.9012 21.1005 44.9119 20.772Z" fill="#fff"/>
<path d="M68.771 20.6151C68.7689 21.4523 68.768 22.2086 68.7624 22.9648C68.762 23.0138 68.7258 23.0625 68.6492 23.2539C67.7014 23.1517 66.7144 23.0452 65.603 22.9254C66.605 18.3296 67.5658 13.9226 68.5267 9.51562C68.6081 9.52041 68.6896 9.5252 68.7711 9.52999C68.7711 13.198 68.7711 16.8661 68.771 20.6151Z" fill="#fff"/>
<path d="M42.6766 76.7783C41.2257 76.1495 40.6107 74.8945 40.8666 73.1962C41.0305 72.1078 42.1747 71.015 43.2697 70.9009C44.8506 70.7361 46.0726 71.4288 46.6299 72.8055C47.0592 73.8663 46.6838 75.4869 45.7805 76.2755C44.9843 76.9706 43.6547 77.3651 42.6766 76.7783ZM43.7682 75.1693C44.5992 75.0552 45.0122 74.6283 44.9636 73.8772C44.9204 73.2104 44.5714 72.7512 43.8794 72.7081C43.2091 72.6663 42.7797 72.982 42.6688 73.7006C42.5444 74.5061 42.7874 74.9092 43.7682 75.1693Z" fill="#fff"/>
<path d="M67.3524 80.1177C66.7747 77.4851 66.2157 74.9185 65.6436 72.2917C66.7324 72.14 67.6753 72.0086 68.7045 71.8652C68.7045 76.4929 68.7045 81.0325 68.7045 85.572C68.6496 85.5807 68.5947 85.5894 68.5398 85.5981C68.1502 83.7934 67.7607 81.9886 67.3524 80.1177Z" fill="#fff"/>
<path d="M58.1049 13.4109C58.7915 16.5628 59.4659 19.6477 60.1784 22.9072C59.0946 23.0404 58.1547 23.1558 57.1411 23.2804C57.1411 18.6906 57.1411 14.1866 57.1411 9.68258C57.1889 9.67771 57.2366 9.67284 57.2844 9.66797C57.5539 10.8933 57.8233 12.1186 58.1049 13.4109Z" fill="#fff"/>
<path d="M59.8891 72.2428C59.8498 73.115 59.8147 73.9734 59.6357 74.8006C58.8559 78.4032 58.0342 81.9967 57.165 85.6028C57.165 81.0608 57.165 76.5189 57.165 71.8945C58.0383 71.9996 58.9327 72.1071 59.8891 72.2428Z" fill="#fff"/>
<path d="M11.09 60.7316C12.2272 59.7497 13.598 59.6331 14.6486 60.3741C15.5805 61.0314 16.1827 62.8138 15.8148 63.8254C15.384 65.0094 14.0861 65.8329 12.7502 65.6875C10.5422 65.4471 9.52129 63.0639 10.6676 61.468C10.8207 61.2548 10.9372 61.0153 11.09 60.7316ZM12.4361 63.6797C13.032 63.898 13.6584 63.9984 13.9148 63.2714C14.0172 62.9811 13.8429 62.3426 13.6258 62.2474C13.2772 62.0945 12.7009 62.1228 12.3793 62.3257C11.9016 62.6271 11.9898 63.1465 12.4361 63.6797Z" fill="#fff"/>
<path d="M0.840615 48.1289C1.10735 46.2681 2.30621 45.354 4.20537 45.6082C5.46512 45.7768 6.75063 46.8109 6.49622 48.9848C6.33073 50.3989 4.94608 51.4736 3.50934 51.3333C2.00414 51.1865 0.702719 50.307 0.840615 48.1289ZM3.54462 47.4049C2.7843 47.5233 2.62221 48.1548 2.68381 48.7068C2.74017 49.2119 3.19124 49.6756 3.79129 49.4554C4.11545 49.3364 4.49735 48.9525 4.55928 48.6315C4.67869 48.0124 4.4616 47.447 3.54462 47.4049Z" fill="#fff"/>
<path d="M112.225 65.4496C110.557 65.1042 109.679 63.4496 110.273 61.8688C110.997 59.9445 112.623 59.2385 114.252 60.2078C115.235 60.7922 115.945 62.5097 115.45 63.8167C114.968 65.0925 113.551 65.8127 112.225 65.4496ZM112.225 63.4837C112.871 63.9237 113.29 63.85 113.669 63.2299C113.961 62.7518 113.786 62.1707 113.171 61.9717C112.89 61.8809 112.321 62.0049 112.213 62.2073C112.038 62.5361 112.135 63.0096 112.225 63.4837Z" fill="#fff"/>
<path d="M114.265 35.8711C113.219 36.4614 111.809 36.3237 111.003 35.5804C110.14 34.7847 109.829 33.2328 110.316 32.1548C110.811 31.0617 111.908 30.4473 113.128 30.5805C115.057 30.7912 116.163 32.6539 115.351 34.4111C115.108 34.9366 114.67 35.372 114.265 35.8711ZM113.118 32.3226C112.31 32.3406 111.871 32.7155 111.92 33.3467C111.964 33.931 112.476 34.3821 113.012 34.1815C113.336 34.0598 113.759 33.6874 113.779 33.4028C113.802 33.0751 113.428 32.7201 113.118 32.3226Z" fill="#fff"/>
<path d="M121.878 51.2782C120.545 51.0592 119.566 50.4691 119.236 49.1244C118.967 48.0287 119.217 47.0473 120.019 46.2472C120.857 45.4112 121.945 45.3213 122.948 45.6784C123.956 46.0371 124.62 46.822 124.672 48.029C124.755 49.9656 124.182 50.6874 121.878 51.2782ZM122.892 48.2179C122.459 47.2698 121.933 46.9509 121.497 47.4558C121.202 47.7979 121.086 48.4029 121.12 48.8738C121.136 49.0898 121.721 49.4493 122.017 49.4208C122.567 49.3677 122.932 48.9471 122.892 48.2179Z" fill="#fff"/>
<path d="M4.13104 58.2066C3.59782 57.0171 3.67474 55.9373 4.55787 55.0268C5.47278 54.0835 6.59765 53.9073 7.80933 54.3791C8.89655 54.8024 9.40964 55.6801 9.53826 56.7877C9.67339 57.9513 8.58845 59.3532 7.42452 59.5394C6.09492 59.7521 4.94099 59.4737 4.13104 58.2066ZM6.47757 57.8747C7.20199 57.8134 7.70591 57.3704 7.65221 56.8422C7.59595 56.2889 6.9601 55.8033 6.42628 56.0027C6.14992 56.1059 5.86195 56.4104 5.75703 56.6906C5.55466 57.231 5.91647 57.5875 6.47757 57.8747Z" fill="#fff"/>
<path d="M5.50978 37.2664C6.76938 36.9735 7.91988 37.0161 8.82795 37.991C10.033 39.2849 9.59268 41.4816 7.97593 42.2656C6.92581 42.7748 5.88689 42.7054 4.94462 42.014C3.99298 41.3157 3.63079 40.3472 3.8715 39.1848C4.05886 38.28 4.66317 37.7059 5.50978 37.2664ZM5.72479 39.5965C5.61707 40.2005 5.88899 40.58 6.45929 40.7126C7.00878 40.8403 7.49748 40.5901 7.54847 40.0593C7.58181 39.7123 7.32074 39.2017 7.0282 38.9878C6.4765 38.5844 6.05067 38.9506 5.72479 39.5965Z" fill="#fff"/>
<path d="M116.322 57.3307C116.108 55.5529 117.216 54.1669 118.881 54.0423C120.413 53.9277 121.797 55.2037 121.858 56.788C121.902 57.9101 120.836 59.2516 119.706 59.4968C118.414 59.7774 116.913 59.0133 116.488 57.8558C116.433 57.7043 116.389 57.5483 116.322 57.3307ZM119.306 57.6541C119.887 57.3869 120.308 56.9633 119.848 56.3666C119.639 56.095 119.055 55.9457 118.694 56.0163C118.455 56.0633 118.16 56.5958 118.156 56.9141C118.149 57.5013 118.639 57.6765 119.306 57.6541Z" fill="#fff"/>
<path d="M118.991 37.0957C120.369 37.1603 121.405 37.8746 121.685 38.9055C122.027 40.1641 121.627 41.3643 120.648 42.0156C119.631 42.692 118.327 42.6666 117.355 41.9515C116.567 41.3724 116.067 40.0805 116.308 39.2464C116.712 37.8432 117.488 37.2052 118.991 37.0957ZM119.594 39.0266C118.952 38.6881 118.3 38.9007 118.14 39.487C117.997 40.0108 118.203 40.4638 118.648 40.5944C118.975 40.6901 119.479 40.5479 119.765 40.3298C120.245 39.9635 120.066 39.4888 119.594 39.0266Z" fill="#fff"/>
<path d="M11.5363 35.8826C11.5363 35.8826 11.4789 35.8485 11.4301 35.7932C11.1484 35.4312 10.8658 35.1501 10.6915 34.8131C10.0571 33.5861 10.2091 32.4108 11.0125 31.305C11.0125 31.305 11.0324 31.3103 11.0851 31.2998C11.2199 31.1948 11.302 31.1003 11.3842 31.0057C11.3842 31.0057 11.4592 30.9926 11.5456 30.9883C11.7619 30.8809 11.8918 30.7777 12.0217 30.6745C12.0925 30.6674 12.1633 30.6603 12.3577 30.6498C12.8769 30.6347 13.2726 30.623 13.6682 30.6113C13.7853 30.6322 13.9024 30.653 14.1031 30.7196C14.3368 30.8308 14.4869 30.8963 14.6369 30.9617C14.6369 30.9617 14.7053 31.0036 14.7636 31.0535C15.0667 31.3595 15.3115 31.6156 15.5564 31.8717C16.395 33.2443 15.7164 35.5719 14.2961 35.9892C13.631 36.1846 12.8899 36.1217 12.0905 36.131C11.8439 36.0183 11.6901 35.9505 11.5363 35.8826ZM12.0479 33.3407C12.1289 33.5067 12.1709 33.7689 12.2983 33.8206C12.6839 33.9772 13.166 34.2238 13.4886 34.1048C13.7481 34.0091 13.9839 33.4142 13.9433 33.0751C13.9098 32.7956 13.4913 32.4219 13.1805 32.3454C12.5439 32.1888 12.2266 32.6504 12.0479 33.3407Z" fill="#fff"/>
<path d="M73.633 16.0819C73.4097 18.5985 73.1912 21.0383 72.9776 23.4786C72.933 23.9873 72.776 24.2048 72.1974 23.9996C71.548 23.7693 70.8549 23.6622 70.0132 23.4615C71.2744 19.7394 72.5193 16.065 73.7643 12.3906C73.8207 12.3982 73.877 12.4057 73.9334 12.4133C73.8354 13.6106 73.7375 14.8079 73.633 16.0819Z" fill="#fff"/>
<path d="M52.5619 20.258C52.3267 17.6711 52.0967 15.1594 51.8667 12.6476C51.9464 12.6342 52.026 12.6208 52.1057 12.6074C53.3162 16.1803 54.5268 19.7531 55.7755 23.4387C54.9187 23.6803 54.1395 23.9261 53.3441 24.0967C53.2232 24.1226 52.9086 23.8146 52.8859 23.6355C52.7472 22.5388 52.6668 21.4347 52.5619 20.258Z" fill="#fff"/>
<path d="M70.7294 71.5332C71.2885 71.4113 71.7945 71.3246 72.2813 71.1756C72.7885 71.0203 72.9442 71.1828 72.9888 71.6945C73.2775 75.0002 73.5967 78.3031 73.897 81.6077C73.928 81.9494 73.9011 82.2964 73.9011 82.4931C73.7921 82.6557 73.7816 82.6713 73.7711 82.687C73.7767 82.6613 73.7936 82.6317 73.7863 82.6106C72.8265 79.8553 71.859 77.1027 70.9073 74.3447C70.6539 73.6105 70.4656 72.8539 70.2147 72.1189C70.0546 71.6499 70.2737 71.5425 70.7294 71.5332Z" fill="#fff"/>
<path d="M52.0989 80.0566C52.3553 77.2748 52.6177 74.5673 52.8356 71.8562C52.8865 71.2221 52.9471 70.8726 53.7226 71.1791C54.3117 71.4119 54.9665 71.4788 55.7544 71.6561C54.5329 75.2877 53.3282 78.8691 52.1235 82.4506C52.0461 82.4389 51.9686 82.4273 51.8911 82.4156C51.957 81.6536 52.0229 80.8916 52.0989 80.0566Z" fill="#fff"/>
<path d="M61.6398 76.5802C61.5089 75.1168 61.3803 73.7286 61.2446 72.2647C62.2882 72.2647 63.1755 72.2388 64.0586 72.2873C64.2278 72.2966 64.5318 72.6114 64.5187 72.7633C64.3321 74.9332 64.1017 77.0994 63.8793 79.2923C63.2108 79.2923 62.6273 79.2923 61.9335 79.2923C61.8364 78.4142 61.7392 77.5348 61.6398 76.5802Z" fill="#fff"/>
<path d="M61.4492 20.3031C61.6198 18.7598 61.7746 17.2881 61.9311 15.8008C62.6198 15.8008 63.2031 15.8008 63.8829 15.8008C64.1156 18.1175 64.3462 20.4123 64.5852 22.7909C63.4452 22.7909 62.4145 22.7909 61.2754 22.7909C61.3286 21.9777 61.3811 21.1762 61.4492 20.3031Z" fill="#fff"/>
<path d="M94.4364 26.7152C95.8258 26.6527 96.816 27.8662 96.9238 29.1255C97.0302 30.3677 95.9898 31.5153 94.5883 31.7568C93.462 31.9508 92.1209 31.1223 91.8184 30.0457C91.4405 28.7009 92.0252 27.3417 93.2521 26.8453C93.5871 26.7097 93.9942 26.7524 94.4364 26.7152ZM93.797 28.6243C93.3188 29.0444 93.3858 29.461 93.8341 29.84C94.2608 30.2006 94.6689 30.0081 94.9244 29.6403C95.0606 29.4442 95.09 28.9224 94.9784 28.8534C94.6634 28.6585 94.2506 28.6216 93.797 28.6243Z" fill="#fff"/>
<path d="M34.0724 28.7112C34.1819 30.1815 33.5 31.3529 32.4173 31.6292C30.9156 32.0125 29.7716 31.4615 29.1454 30.2544C28.5308 29.0695 29.1595 27.373 30.5482 26.8197C32.0226 26.2323 33.6675 27.1109 34.0724 28.7112ZM32.3084 29.3649C32.1564 28.544 31.6895 28.1681 31.2002 28.5238C30.9849 28.6802 30.7925 29.0537 30.8191 29.3042C30.845 29.547 31.1809 29.9544 31.3526 29.9406C31.6594 29.916 31.9451 29.6289 32.3084 29.3649Z" fill="#fff"/>
<path d="M91.821 66.7536C91.5227 65.2345 91.8849 64.3333 93.0192 63.6796C93.9227 63.1588 95.2285 63.2721 96.0069 63.9997C96.7268 64.6727 97.0928 65.4641 96.7965 66.5059C96.4595 67.6905 95.6696 68.2972 94.5139 68.4268C93.5505 68.5348 92.7482 68.1466 92.1677 67.3525C92.0434 67.1824 91.9449 66.9935 91.821 66.7536ZM94.3621 65.0882C94.0653 65.343 93.6774 65.5518 93.5146 65.8742C93.4456 66.0109 93.8021 66.5317 94.0508 66.6116C94.2947 66.69 94.7634 66.5188 94.9294 66.3013C95.3468 65.7547 94.9736 65.3809 94.3621 65.0882Z" fill="#fff"/>
<path d="M33.4991 67.5619C31.89 69.1567 29.5753 68.4325 29.0035 66.5505C28.7068 65.5736 29.0501 64.7722 29.7152 64.0639C30.5035 63.2242 31.5245 63.2152 32.4739 63.509C33.3264 63.7729 33.9546 64.4358 34.0805 65.4187C34.1795 66.1912 34.0748 66.9083 33.4991 67.5619ZM30.8057 66.1932C31.1076 66.3499 31.4162 66.6366 31.7093 66.6216C31.9369 66.6099 32.2577 66.2509 32.3255 65.9912C32.3779 65.7903 32.1561 65.4378 31.9564 65.2758C31.7877 65.1389 31.3539 65.0599 31.2519 65.1645C31.0241 65.398 30.9302 65.7621 30.8057 66.1932Z" fill="#fff"/>
<path d="M77.8918 75.2307C78.2008 76.7804 78.5037 78.2595 78.8067 79.7386C78.7283 79.7587 78.6499 79.7789 78.5714 79.799C77.1884 76.779 75.8054 73.7591 74.3696 70.6238C75.2263 70.3098 75.9855 70.0316 76.9085 69.6934C77.2458 71.5802 77.5658 73.3701 77.8918 75.2307Z" fill="#fff"/>
<path d="M47.5898 76.8439C48.0345 74.4163 48.4625 72.0561 48.8945 69.6738C49.6814 69.9237 50.2334 70.1163 50.7955 70.2719C51.2266 70.3912 51.4412 70.6016 51.234 71.053C49.8914 73.9771 48.5454 76.8996 47.2006 79.8226C47.1366 79.8048 47.0727 79.787 47.0088 79.7692C47.1968 78.8165 47.3849 77.8639 47.5898 76.8439Z" fill="#fff"/>
<path d="M84.8806 24.6436C85.945 23.1501 86.9759 21.7059 88.0067 20.2617C88.0624 20.2907 88.1182 20.3197 88.1739 20.3487C87.4041 22.1684 86.6369 23.9893 85.8633 25.8075C85.468 26.7363 85.0664 27.6624 84.6574 28.5852C84.4618 29.0264 84.2433 29.2981 83.7281 28.858C83.3416 28.5278 82.8525 28.3178 82.3442 28.0157C83.221 26.8516 84.034 25.7723 84.8806 24.6436Z" fill="#fff"/>
<path d="M33.3995 23.5378C33.3591 23.4844 33.3426 23.4639 33.3262 23.4434C33.3466 23.4513 33.3731 23.4535 33.3865 23.4679C35.3732 25.6023 37.3493 27.7468 39.353 29.8652C39.7495 30.2843 39.7639 30.5409 39.2615 30.8433C38.8765 31.0751 38.5249 31.3626 38.0324 31.7157C36.4794 28.9712 34.9514 26.2708 33.3995 23.5378Z" fill="#fff"/>
<path d="M48.7341 24.514C48.7088 24.352 48.6834 24.19 48.6813 23.9031C48.6069 23.4828 48.5092 23.1872 48.4115 22.8916C48.3804 22.6826 48.3494 22.4736 48.3455 22.1344C48.2699 21.596 48.1671 21.1878 48.0644 20.7796C48.045 20.67 48.0258 20.5605 48.0279 20.3303C47.9474 19.8589 47.8454 19.5081 47.7434 19.1573C47.7187 19.0016 47.6939 18.846 47.6925 18.5661C47.6097 18.0845 47.5036 17.727 47.3975 17.3695C47.3837 17.3089 47.3699 17.2483 47.3788 17.0797C47.4964 16.7859 47.5915 16.6 47.6865 16.4141C47.6976 16.4397 47.7086 16.4653 47.7081 16.5929C48.1154 17.4696 48.5343 18.2442 48.9531 19.0188C48.9662 19.05 48.9793 19.0812 48.9844 19.214C49.0727 19.4341 49.169 19.5526 49.2653 19.6711C49.2867 19.7365 49.308 19.8018 49.3269 19.9677C49.4092 20.153 49.4941 20.2378 49.579 20.3225C49.602 20.389 49.6249 20.4554 49.6452 20.6222C49.7235 20.8068 49.8047 20.891 49.8858 20.9753C49.9129 21.0405 49.94 21.1057 49.9672 21.2685C50.0374 21.4529 50.1075 21.5398 50.1777 21.6267C50.5821 22.6202 50.9864 23.6137 51.4014 24.6332C50.8375 24.8301 50.3913 24.9859 49.8244 25.1302C49.5007 25.1444 49.2976 25.1702 49.184 25.1846C49.0076 24.9216 48.8708 24.7178 48.7341 24.514Z" fill="#fff"/>
<path d="M77.2154 23.5317C77.2127 23.5989 77.2101 23.6661 77.138 23.7984C76.9981 24.0889 76.876 24.3125 76.8678 24.5401C76.8501 25.0298 76.5984 25.1807 76.1585 25.1393C76.1288 25.1392 76.0992 25.1391 76.0122 25.0705C75.6982 24.9395 75.4413 24.8771 75.1845 24.8147C75.1548 24.8153 75.125 24.816 75.0388 24.7504C74.9303 24.4158 74.7763 24.1172 74.8453 23.8848C75.0491 23.1988 75.341 22.539 75.5985 21.8689C75.5988 21.8047 75.5992 21.7405 75.6788 21.6257C75.9083 21.3065 76.0826 21.0484 76.2042 20.7675C76.5572 19.9518 76.8892 19.127 77.2294 18.3058C77.2375 18.2435 77.2456 18.1812 77.3375 18.0788C77.4629 17.9088 77.5045 17.7789 77.5461 17.649C77.5667 17.5677 77.5874 17.4863 77.6961 17.3455C77.7703 17.2032 77.7565 17.1203 77.7426 17.0374C77.8543 16.7595 77.9659 16.4816 78.1387 16.1602C78.3216 16.2103 78.4434 16.3039 78.5652 16.3976C78.5426 16.5622 78.5201 16.7269 78.4313 16.969C78.311 17.4237 78.2569 17.801 78.2028 18.1782C78.1934 18.2933 78.184 18.4084 78.1026 18.5934C77.9809 19.0426 77.9312 19.4219 77.8815 19.8013C77.8746 19.9172 77.8677 20.0331 77.7946 20.2237C77.6659 20.7272 77.6033 21.1559 77.5407 21.5847C77.5368 21.7515 77.5329 21.9184 77.463 22.1637C77.3365 22.672 77.2759 23.1018 77.2154 23.5317Z" fill="#fff"/>
<path d="M34.2495 69.9359C35.5087 67.7865 36.7679 65.6371 38.0267 63.4883C39.8801 64.5764 39.8826 64.5786 38.5458 66.1099C38.1076 66.6119 37.6525 67.0991 37.1009 67.6213C36.8362 67.8663 36.6757 68.0832 36.5152 68.3C36.5152 68.3 36.5121 68.3132 36.4518 68.3096C36.1564 68.6131 35.9214 68.9202 35.6862 69.2272C35.6862 69.2272 35.6775 69.2568 35.613 69.259C35.4872 69.3615 35.4259 69.4619 35.3646 69.5622C35.3646 69.5622 35.3596 69.5881 35.296 69.589C35.1699 69.6934 35.1074 69.7969 35.0449 69.9004C35.0449 69.9004 35.0423 69.9217 34.98 69.9205C34.853 70.0244 34.7884 70.1294 34.7238 70.2344C34.7238 70.2344 34.7244 70.2523 34.6624 70.251C34.5351 70.3568 34.4698 70.4638 34.4044 70.5709C34.4044 70.5709 34.4138 70.586 34.3753 70.5363C34.3077 70.3031 34.2786 70.1195 34.2495 69.9359Z" fill="#fff"/>
<path d="M90.9026 26.1475C89.8905 27.9286 88.8784 29.7097 87.889 31.4508C87.7528 31.4508 87.6967 31.4679 87.66 31.4484C85.8755 30.4973 85.876 30.4972 87.2214 29.0161C87.7745 28.4071 88.3262 27.7969 88.9751 27.1533C89.1395 27.0093 89.2074 26.8992 89.2752 26.7892C89.2752 26.7892 89.2709 26.783 89.3285 26.7849C89.4547 26.676 89.5234 26.5652 89.5921 26.4545C89.5921 26.4545 89.5954 26.4587 89.648 26.4561C89.7708 26.3436 89.8409 26.2336 89.9111 26.1236C89.9111 26.1236 89.9195 26.1343 89.9703 26.1291C90.264 25.8131 90.507 25.5023 90.75 25.1916C90.75 25.1916 90.7521 25.1758 90.8106 25.176C90.935 25.0684 91.001 24.9606 91.067 24.8527C91.067 24.8527 91.0639 24.8367 91.126 24.8531C91.2257 25.0098 91.3263 25.1703 91.2888 25.2863C91.1928 25.5839 91.0355 25.8618 90.9026 26.1475Z" fill="#fff"/>
<path d="M39.2117 70.9012C39.234 70.8364 39.2562 70.7716 39.3357 70.6485C39.4285 70.4755 39.4639 70.3607 39.4994 70.246C39.5259 70.1812 39.5524 70.1163 39.6402 69.9788C39.8215 69.5911 39.9415 69.2762 40.0615 68.9613C40.1319 68.7962 40.2022 68.631 40.3288 68.4038C40.4248 68.2208 40.4645 68.0999 40.5043 67.9789C40.7441 67.4392 40.9459 66.8769 41.2448 66.3722C41.3463 66.2009 41.7629 66.0332 41.915 66.1082C42.4472 66.3706 42.9269 66.7396 43.4426 67.0788C42.8676 67.8468 42.3441 68.5457 41.7164 69.2706C41.4869 69.5137 41.3617 69.7308 41.2365 69.948C41.1981 70.0359 41.1598 70.1238 41.0222 70.2326C40.7018 70.5829 40.4805 70.9122 40.2593 71.2416C40.2593 71.2416 40.2635 71.2472 40.2054 71.2486C39.8591 71.6786 39.5709 72.1072 39.2828 72.5358C39.2828 72.5358 39.2899 72.5449 39.2306 72.5462C38.9393 72.8703 38.7073 73.1931 38.3904 73.5065C38.2488 73.4925 38.192 73.4879 38.1353 73.4833C38.2642 73.1847 38.3932 72.8861 38.5855 72.4971C38.6865 72.2324 38.7242 72.058 38.7618 71.8836C38.7681 71.8569 38.7744 71.8301 38.8379 71.7415C39.0006 71.4202 39.1062 71.1607 39.2117 70.9012Z" fill="#fff"/>
<path d="M90.7466 68.6507C90.8544 68.8178 90.9622 68.9849 91.0581 69.2608C91.1557 69.6315 91.2654 69.8934 91.4308 70.2884C90.7307 69.6622 90.1641 69.1553 89.5975 68.6484C88.4509 67.4093 87.3043 66.1703 86.0776 64.8447C86.5766 64.4586 86.995 64.0573 87.4888 63.8022C87.6286 63.7299 88.0818 64.0239 88.2308 64.2538C88.7173 65.0045 89.1296 65.8031 89.5805 66.6997C89.976 67.4277 90.3613 68.0392 90.7466 68.6507Z" fill="#fff"/>
<path d="M86.2869 70.2965C86.3065 70.3584 86.326 70.4204 86.3428 70.5814C86.425 70.7701 86.5099 70.8596 86.5948 70.9491C86.6112 71.0153 86.6277 71.0814 86.6178 71.2251C86.6913 71.404 86.791 71.5052 86.8907 71.6065C86.9114 71.6707 86.9321 71.735 86.9269 71.8884C87.0054 72.2472 87.1524 72.5106 87.193 72.7895C87.2091 72.8997 86.9884 73.0445 86.8755 73.1735C85.8378 71.7692 84.8001 70.3649 83.7525 68.8567C83.6355 68.6658 83.5283 68.5788 83.4212 68.4918C83.4212 68.4918 83.3952 68.4357 83.3986 68.3484C83.1983 68.0635 82.9945 67.8659 82.7907 67.6683C82.7907 67.6683 82.7798 67.6751 82.7901 67.6085C82.9012 67.2611 83.0021 66.9804 83.103 66.6997C83.103 66.6997 83.1587 66.6689 83.2524 66.6801C84.2812 66.182 84.2651 66.1898 84.7324 67.1534C84.9879 67.6801 85.3088 68.1751 85.6002 68.6844C85.6214 68.7486 85.6425 68.8128 85.637 68.9641C85.8358 69.4663 86.0614 69.8814 86.2869 70.2965Z" fill="#fff"/>
<path d="M42.7831 27.1361C42.7988 27.1626 42.8145 27.1891 42.8406 27.3225C42.9038 27.7452 42.9566 28.0609 43.0094 28.3766C43.0094 28.3766 42.9424 28.4027 42.8533 28.3969C42.6796 28.4877 42.595 28.5842 42.5104 28.6808C42.5104 28.6808 42.5011 28.7017 42.4297 28.6911C41.9823 28.6969 41.6062 28.7132 41.2301 28.7295C41.2149 28.6712 41.1997 28.6128 41.1992 28.4469C40.5839 26.916 39.93 25.5026 39.334 24.0651C39.0457 23.3699 38.8663 22.6294 38.6875 21.9316C38.9197 22.1585 39.102 22.3631 39.2843 22.5677C39.2843 22.5677 39.29 22.5635 39.2839 22.622C39.4684 22.8689 39.6591 23.0573 39.8498 23.2457C39.8674 23.273 39.885 23.3004 39.9034 23.4303C40.0222 23.6438 40.1403 23.7547 40.2583 23.8657C40.2583 23.8657 40.2636 23.8617 40.2574 23.9203C40.4444 24.1665 40.6377 24.354 40.8311 24.5415C40.848 24.5678 40.865 24.594 40.8804 24.7211C40.9961 24.9363 41.1132 25.0506 41.2304 25.165C41.2304 25.165 41.2374 25.1601 41.23 25.2219C41.7428 25.9012 42.2629 26.5187 42.7831 27.1361Z" fill="#fff"/>
<path d="M29.0403 33.1265C30.402 34.1373 31.7638 35.148 33.1909 36.2073C32.7106 36.6744 32.3207 37.0535 31.8223 37.5382C30.6632 36.0427 29.5273 34.577 28.4902 33.0499C28.7395 33.0345 28.8899 33.0805 29.0403 33.1265Z" fill="#fff"/>
<path d="M96.8919 62.1622C95.5556 61.1209 94.2194 60.0797 92.7817 58.9595C93.0848 58.641 93.3698 58.2578 93.7414 57.9984C93.8642 57.9126 94.2986 58.0736 94.4394 58.2456C95.3013 59.2986 96.1197 60.3873 97.0094 61.5468C97.1692 61.6997 97.2722 61.7699 97.3753 61.8402C97.3753 61.8402 97.3844 61.8339 97.377 61.8908C97.4008 62.0552 97.4321 62.1626 97.4702 62.2931C97.2392 62.2408 97.0656 62.2015 96.8919 62.1622Z" fill="#fff"/>
<path d="M29.0421 61.1492C29.0778 61.0786 29.1135 61.0081 29.2146 60.8748C29.3116 60.7116 29.3433 60.6111 29.3749 60.5105C30.0727 59.7081 30.7515 58.8881 31.4735 58.108C32.2121 57.3098 32.411 58.3208 32.7914 58.5768C33.3146 58.9289 32.8518 59.0933 32.5749 59.3049C31.4966 60.129 30.4345 60.9743 29.2578 61.8264C28.9882 61.8934 28.8271 61.9458 28.6289 62.0103C28.6712 61.7932 28.7003 61.6442 28.7294 61.4953C28.7294 61.4953 28.7375 61.5114 28.7877 61.5084C28.906 61.3867 28.9741 61.268 29.0421 61.1492Z" fill="#fff"/>
<path d="M96.7455 33.9376C96.7455 33.9376 96.7164 34.0032 96.6427 34.0396C95.9667 34.8737 95.3644 35.6715 94.762 36.4692C94.762 36.4692 94.7608 36.4916 94.6981 36.493C94.5722 36.6011 94.5091 36.7078 94.446 36.8145C94.446 36.8145 94.4481 36.8281 94.3838 36.831C93.6299 37.0501 93.2144 36.7016 93.1528 35.8552C93.1528 35.8552 93.1623 35.8716 93.2109 35.8713C93.3397 35.7685 93.4198 35.6661 93.5 35.5636C94.4277 34.8064 95.3553 34.0491 96.3973 33.2921C96.6414 33.1796 96.7713 33.0668 96.9012 32.954C96.9012 32.954 96.8991 32.9491 96.9561 32.9631C97.1334 33.0707 97.2537 33.1643 97.374 33.2579C97.374 33.2579 97.3818 33.2719 97.323 33.2707C97.1968 33.38 97.1295 33.4904 97.0622 33.6009C97.0622 33.6009 97.0603 33.5985 97.0065 33.5986C96.8836 33.7116 96.8145 33.8246 96.7455 33.9376Z" fill="#fff"/>
<path d="M81.0963 25.9862C80.9523 26.3849 80.8142 26.7246 80.6496 27.1298C79.9025 26.7742 79.2009 26.4403 78.3794 26.0494C78.8168 25.4669 79.1041 24.7032 79.5569 24.5875C80.0188 24.4695 80.6434 24.9883 81.2527 25.2526C81.2019 25.4802 81.1521 25.7037 81.0963 25.9862Z" fill="#fff"/>
<path d="M45.0391 26.9109C44.8452 26.3544 44.6747 25.8558 44.4932 25.3247C45.0846 25.0367 45.6245 24.7738 46.2989 24.4453C46.6058 24.9 46.9405 25.3832 47.2556 25.879C47.2933 25.9384 47.246 26.0779 47.2005 26.1593C47.0216 26.4796 45.467 27.0604 45.0391 26.9109Z" fill="#fff"/>
<path d="M44.6278 69.3662C44.8151 68.8676 44.9733 68.4244 45.1555 67.9141C45.9286 68.3052 46.6073 68.6486 47.3364 69.0174C47.2301 69.1843 47.1586 69.286 47.0977 69.3937C46.3799 70.6622 45.7347 70.7918 44.6407 69.8599C44.5605 69.7916 44.6096 69.5713 44.6278 69.3662Z" fill="#fff"/>
<path d="M34.7858 31.6622C35.3185 32.1288 35.8091 32.5639 36.3586 33.0513C35.859 33.4913 35.4103 33.8866 34.8849 34.3494C34.3585 33.6619 33.8874 33.0467 33.3677 32.3679C33.8682 32.1377 33.9521 31.2935 34.7858 31.6622Z" fill="#fff"/>
<path d="M34.5367 63.638C34.4071 63.6036 34.3203 63.5435 34.2354 63.4808C33.3616 62.834 33.3652 62.8363 33.9983 61.9293C34.2867 61.5161 34.558 61.091 34.8251 60.6895C35.1605 60.9997 35.5101 61.3467 35.8851 61.6635C36.2725 61.9907 36.2682 62.2183 35.8308 62.522C35.3795 62.8353 34.9944 63.244 34.5367 63.638Z" fill="#fff"/>
<path d="M81.1681 69.472C80.9798 70.3194 80.143 70.1922 79.6445 70.5504C79.5944 70.5864 79.1664 70.1591 78.9663 69.9054C78.7878 69.679 78.682 69.3954 78.5039 69.0618C79.2026 68.7176 79.8844 68.3816 80.6867 67.9863C80.8513 68.4822 81.0058 68.9477 81.1681 69.472Z" fill="#fff"/>
<path d="M91.611 31.6299C92.6263 32.5889 92.4031 32.2676 91.7658 33.2571C91.5529 33.5876 91.2732 33.8751 90.9811 34.2352C90.5173 33.8522 90.0764 33.4881 89.4805 32.9961C90.1183 32.4491 90.7045 31.9416 91.3035 31.4496C91.3291 31.4286 91.4731 31.5519 91.611 31.6299Z" fill="#fff"/>
<path d="M91.1694 61.0703C91.323 61.293 91.4551 61.4618 91.5813 61.635C92.4212 62.7873 92.4208 62.7876 91.3268 63.7043C90.9885 63.4089 90.6233 63.1272 90.3052 62.7997C90.0814 62.5693 89.9217 62.2767 89.7334 62.0119C90.204 61.6808 90.6746 61.3496 91.1694 61.0703Z" fill="#fff"/>
<path d="M27.1314 37.8761C28.1491 38.4082 29.1158 38.9148 30.1269 39.4447C29.9335 39.6757 29.8364 39.7694 29.7656 39.88C29.3892 40.4679 29.0637 40.4826 28.5558 39.9461C27.8637 39.215 27.0572 38.5922 26.2998 37.9229C26.366 37.8535 26.4321 37.7842 26.4982 37.7148C26.6923 37.7601 26.8864 37.8054 27.1314 37.8761Z" fill="#fff"/>
<path d="M98.4712 56.362C98.7945 56.7163 99.0674 57.0398 99.3403 57.3632C99.3108 57.404 99.2813 57.4448 99.2517 57.4856C98.1542 56.9494 97.0566 56.4132 95.8154 55.8068C96.1291 55.4077 96.4035 55.0584 96.8239 54.5234C97.4235 55.2023 97.9222 55.7667 98.4712 56.362Z" fill="#fff"/>
<path d="M28.6903 56.3876C28.1119 56.6396 27.587 56.8606 27.0621 57.0817C27.0123 57.0049 26.9624 56.9281 26.9126 56.8513C27.5674 56.1921 28.2098 55.5195 28.8911 54.8889C28.9884 54.7988 29.3318 54.8415 29.4598 54.9465C29.6963 55.1406 29.8576 55.4264 30.1083 55.7485C29.6016 55.9743 29.1727 56.1655 28.6903 56.3876Z" fill="#fff"/>
<path d="M38.6377 21.9102C38.8663 22.6301 39.0457 23.3706 39.334 24.0659C39.93 25.5033 40.5839 26.9168 41.2 28.4019C40.8025 27.7105 40.3875 26.9714 40.0426 26.2009C39.4205 24.811 38.8403 23.4024 38.3237 21.9701C38.4846 21.9317 38.5644 21.9248 38.6424 21.9161C38.6406 21.9143 38.6377 21.9102 38.6377 21.9102Z" fill="#fff"/>
<path d="M96.1043 39.1623C96.1628 39.1398 96.2214 39.1172 96.3819 39.1057C96.5734 39.0238 96.663 38.9307 96.7525 38.8377C96.8124 38.8167 96.8722 38.7956 97.0342 38.7811C97.2247 38.6956 97.313 38.6036 97.4013 38.5116C97.6738 38.3962 97.9462 38.2808 98.321 38.1582C98.5055 38.2492 98.5875 38.3474 98.6695 38.4456C98.6695 38.4456 98.6739 38.4601 98.616 38.4581C98.4876 38.5616 98.4172 38.6672 98.3467 38.7727C98.3467 38.7727 98.3503 38.7873 98.2919 38.7825C98.1619 38.8819 98.0902 38.9861 98.0184 39.0903C98.0184 39.0903 98.0191 39.1043 97.9591 39.1005C97.8314 39.2045 97.7638 39.3123 97.6961 39.4202C97.6961 39.4202 97.7033 39.4349 97.6443 39.432C97.5134 39.5327 97.4416 39.6364 97.3698 39.74C97.3698 39.74 97.3706 39.7539 97.312 39.7508C97.1838 39.8529 97.1141 39.9582 97.0445 40.0634C97.0445 40.0634 97.0455 40.0774 96.9795 40.0707C96.641 39.9626 96.3683 39.8611 96.0958 39.7596C96.0958 39.7596 96.0879 39.7664 96.092 39.7021C96.0988 39.4793 96.1015 39.3208 96.1043 39.1623Z" fill="#fff"/>
<path d="M10.9542 31.3008C10.2093 32.4111 10.0573 33.5864 10.6917 34.8134C10.8659 35.1504 11.1486 35.4315 11.3969 35.7936C11.3068 35.8487 11.1786 35.8879 11.0993 35.8422C9.72431 35.0493 9.60291 32.2582 10.9542 31.3008Z" fill="#000"/>
<path d="M86.9072 73.2213C86.9885 73.0446 87.2092 72.8998 87.1931 72.7896C87.1525 72.5107 87.0055 72.2473 86.9331 71.9395C87.4152 72.8881 87.8653 73.8749 88.3154 74.8617C88.2125 74.9149 88.1095 74.9681 88.0066 75.0213C87.6507 74.4372 87.2948 73.8531 86.9072 73.2213Z" fill="#fff"/>
<path d="M90.9575 26.1346C91.0358 25.8609 91.1931 25.583 91.2891 25.2854C91.3266 25.1694 91.226 25.0089 91.1315 24.8584C91.5478 24.3038 92.0209 23.7593 92.494 23.2148C92.5571 23.2656 92.6203 23.3164 92.6834 23.3671C92.1263 24.2856 91.5692 25.2041 90.9575 26.1346Z" fill="#fff"/>
<path d="M89.6021 68.707C90.164 69.1563 90.7307 69.6632 91.4307 70.2895C91.2653 69.8945 91.1556 69.6326 91.0698 69.3134C91.5103 69.7384 92.0361 70.1778 91.7871 71.1578C90.9784 70.2702 90.2925 69.5174 89.6021 68.707Z" fill="#fff"/>
<path d="M85.6117 68.626C85.3088 68.1745 84.9879 67.6796 84.7324 67.1528C84.2651 66.1892 84.2812 66.1814 83.2842 66.6773C83.4432 66.4777 83.6428 66.2535 83.8902 66.1146C84.2597 65.9072 84.5322 65.9946 84.7032 66.4401C84.9798 67.161 85.3135 67.8599 85.6117 68.626Z" fill="#fff"/>
<path d="M39.2814 22.5071C39.1018 22.3623 38.9195 22.1577 38.6873 21.9308C38.6375 21.9086 38.6404 21.9128 38.6454 21.8594C38.5746 21.6516 38.4988 21.4974 38.4031 21.3026C38.3394 21.4529 38.2998 21.5465 38.2602 21.6401C38.0314 21.2102 37.8026 20.7803 37.5737 20.3505C37.683 20.2903 37.7923 20.2301 37.9016 20.1699C38.3606 20.929 38.8196 21.6881 39.2814 22.5071Z" fill="#fff"/>
<path d="M97.4289 33.2511C97.2537 33.1637 97.1334 33.07 96.958 32.9646C97.4129 32.5493 97.9229 32.1457 98.4329 31.7422C98.514 31.8255 98.5951 31.9088 98.6762 31.992C98.2788 32.4097 97.8813 32.8273 97.4289 33.2511Z" fill="#fff"/>
<path d="M75.5548 21.9004C75.3414 22.5387 75.0494 23.1985 74.8457 23.8845C74.7767 24.1169 74.9307 24.4154 74.9961 24.7385C74.3979 24.8361 74.221 24.5982 74.5005 24.0337C74.8453 23.3372 75.1748 22.633 75.5548 21.9004Z" fill="#fff"/>
<path d="M77.1807 18.3301C76.8891 19.1268 76.5571 19.9516 76.2041 20.7673C76.0825 21.0482 75.9083 21.3063 75.7002 21.5822C76.1389 20.5112 76.6354 19.4329 77.1807 18.3301Z" fill="#fff"/>
<path d="M47.6992 16.3544C47.5913 16.6005 47.4962 16.7865 47.3822 17.0333C47.2159 16.4957 47.0686 15.8973 46.9214 15.2988C47.0143 15.2689 47.1072 15.2389 47.2001 15.209C47.3707 15.5707 47.5414 15.9325 47.6992 16.3544Z" fill="#fff"/>
<path d="M94.814 36.4607C95.3645 35.6721 95.9669 34.8744 96.6233 34.0703C96.0735 34.8598 95.4696 35.6556 94.814 36.4607Z" fill="#fff"/>
<path d="M93.0973 35.8496C93.2144 36.7019 93.6299 37.0504 94.3769 36.8303C94.2832 37.0271 94.132 37.228 93.8346 37.623C93.5086 37.2092 93.1947 36.8847 92.9807 36.504C92.8915 36.3455 93.015 36.0674 93.0973 35.8496Z" fill="#fff"/>
<path d="M48.9617 18.9597C48.5341 18.2442 48.1152 17.4696 47.707 16.6348C48.1353 17.3499 48.5529 18.1253 48.9617 18.9597Z" fill="#fff"/>
<path d="M28.2081 32.9997C27.835 32.6455 27.4619 32.2912 27.0889 31.9369C27.148 31.872 27.2072 31.8071 27.2663 31.7422C27.5997 31.9837 27.933 32.2251 28.2486 32.5903C28.2233 32.8092 28.2157 32.9045 28.2081 32.9997Z" fill="#fff"/>
<path d="M34.2218 69.9805C34.2787 70.1181 34.3077 70.3017 34.3675 70.5307C34.181 70.8511 33.9638 71.1259 33.6824 71.4533C33.5478 71.413 33.4775 71.3201 33.4072 71.2273C33.6695 70.827 33.9318 70.4267 34.2218 69.9805Z" fill="#fff"/>
<path d="M42.7801 27.0823C42.2627 26.518 41.7425 25.9006 41.2271 25.2246C41.7469 25.7871 42.2622 26.4081 42.7801 27.0823Z" fill="#fff"/>
<path d="M76.1929 25.1816C76.5986 25.1813 76.8503 25.0304 76.868 24.5407C76.8762 24.3131 76.9983 24.0896 77.1246 23.8477C77.1234 24.2398 77.0934 24.6546 77.0027 25.0557C76.8748 25.6213 76.5724 25.5665 76.1929 25.1816Z" fill="#fff"/>
<path d="M90.7811 68.6189C90.3611 68.0404 89.9758 67.4289 89.5947 66.7578C90.0045 67.3275 90.4101 67.9567 90.7811 68.6189Z" fill="#fff"/>
<path d="M28.6729 61.498C28.7002 61.6445 28.6712 61.7935 28.6288 62.0105C28.827 61.9461 28.9881 61.8937 29.2066 61.8515C29.0441 62.0443 28.8242 62.2268 28.5308 62.3428C28.4201 62.2709 28.3829 62.2656 28.3457 62.2604C28.3812 62.3086 28.4167 62.3568 28.4522 62.4049C28.2916 62.4578 28.131 62.5107 27.9704 62.5636C27.9269 62.5015 27.8834 62.4393 27.8398 62.3771C28.0987 62.0849 28.3576 61.7927 28.6729 61.498Z" fill="#fff"/>
<path d="M98.7231 38.4386C98.587 38.3458 98.505 38.2476 98.3721 38.1313C98.6645 37.903 99.0079 37.6927 99.3514 37.4824C99.4001 37.5418 99.4487 37.6011 99.4974 37.6604C99.2573 37.918 99.0172 38.1756 98.7231 38.4386Z" fill="#fff"/>
<path d="M96.9258 62.2091C97.0658 62.2026 97.2394 62.2419 97.4704 62.2942C97.4323 62.1637 97.401 62.0563 97.374 61.8965C97.6534 62.1059 97.9285 62.3676 98.2035 62.6294C98.1372 62.7212 98.0709 62.813 98.0046 62.9048C97.6562 62.6881 97.3078 62.4715 96.9258 62.2091Z" fill="#fff"/>
<path d="M48.7041 24.5586C48.8707 24.7189 49.0074 24.9227 49.1839 25.1857C49.2975 25.1712 49.5005 25.1454 49.7603 25.1333C49.5394 25.2467 49.1785 25.4996 49.006 25.4059C48.8083 25.2984 48.7776 24.8835 48.7041 24.5586Z" fill="#fff"/>
<path d="M41.208 28.7679C41.6063 28.7137 41.9824 28.6974 42.4186 28.6895C41.731 29.4424 41.6193 29.4517 41.208 28.7679Z" fill="#fff"/>
<path d="M48.0342 20.8262C48.1672 21.1885 48.27 21.5968 48.3471 22.0715C48.2157 21.716 48.1098 21.294 48.0342 20.8262Z" fill="#fff"/>
<path d="M39.3374 72.529C39.571 72.1068 39.8592 71.6782 40.2026 71.2461C39.9692 71.6692 39.6806 72.0959 39.3374 72.529Z" fill="#fff"/>
<path d="M86.2963 70.2375C86.0614 69.8821 85.8359 69.467 85.644 69.0156C85.8871 69.3788 86.0964 69.7783 86.2963 70.2375Z" fill="#fff"/>
<path d="M38.1591 74.5028C37.9779 74.7382 37.7968 74.9737 37.6157 75.2091C37.5278 75.1478 37.4399 75.0865 37.3521 75.0253C37.5019 74.7406 37.6517 74.4558 37.8668 74.2207C38.0077 74.3478 38.0834 74.4253 38.1591 74.5028Z" fill="#000"/>
<path d="M47.3745 17.4199C47.5036 17.7272 47.6097 18.0847 47.6913 18.5071C47.5617 18.2047 47.4566 17.8374 47.3745 17.4199Z" fill="#fff"/>
<path d="M77.2539 23.485C77.2761 23.1013 77.3367 22.6715 77.451 22.2246C77.434 22.618 77.3631 23.0285 77.2539 23.485Z" fill="#fff"/>
<path d="M77.5791 21.5389C77.6037 21.1567 77.6664 20.7279 77.7824 20.2812C77.763 20.673 77.69 21.0827 77.5791 21.5389Z" fill="#fff"/>
<path d="M33.3558 71.2402C33.4775 71.3213 33.5478 71.4141 33.6677 71.5074C33.588 71.7371 33.4588 71.9663 33.3296 72.1954C33.2331 72.1519 33.1366 72.1084 33.04 72.0649C33.1281 71.7939 33.2162 71.523 33.3558 71.2402Z" fill="#fff"/>
<path d="M43.0666 28.3917C42.9568 28.0614 42.904 27.7457 42.8442 27.3691C43.1089 27.6284 43.8984 27.8135 43.0666 28.3917Z" fill="#fff"/>
<path d="M47.7124 19.2012C47.8452 19.5083 47.9472 19.8591 48.0307 20.2748C47.902 19.9748 47.7918 19.6098 47.7124 19.2012Z" fill="#fff"/>
<path d="M78.2417 18.1326C78.2571 17.8003 78.3112 17.4231 78.4182 17.0293C78.4075 17.3711 78.3439 17.7294 78.2417 18.1326Z" fill="#fff"/>
<path d="M77.9204 19.7563C77.9312 19.422 77.9809 19.0426 78.0847 18.6484C78.079 18.9929 78.0191 19.3521 77.9204 19.7563Z" fill="#fff"/>
<path d="M83.0476 66.6934C83.0024 66.9811 82.9015 67.2618 82.7945 67.6043C82.6406 67.5091 82.4929 67.3523 82.2949 67.1421C82.5771 66.9576 82.7845 66.822 83.0476 66.6934Z" fill="#fff"/>
<path d="M13.6534 30.5508C13.2726 30.622 12.8769 30.6336 12.4082 30.6315C12.7696 30.5756 13.204 30.5335 13.6534 30.5508Z" fill="#000"/>
<path d="M40.314 71.2359C40.4808 70.9123 40.702 70.583 40.9782 70.252C40.8116 70.5769 40.59 70.9036 40.314 71.2359Z" fill="#fff"/>
<path d="M78.6259 16.3768C78.4433 16.3049 78.3215 16.2112 78.1533 16.104C78.2501 15.8669 78.3934 15.6434 78.5366 15.4199C78.5867 15.4329 78.6368 15.4459 78.6868 15.4588C78.6868 15.7576 78.6868 16.0564 78.6259 16.3768Z" fill="#fff"/>
<path d="M38.4756 73.5159C38.7076 73.1931 38.9396 72.8702 39.2261 72.543C39.092 72.843 38.9034 73.1474 38.6576 73.5041C38.6004 73.5563 38.5518 73.5861 38.5327 73.5686C38.5137 73.5511 38.4756 73.5159 38.4756 73.5159Z" fill="#fff"/>
<path d="M38.1925 74.4682C38.0836 74.4237 38.0079 74.3462 37.9204 74.2128C37.9474 73.9371 37.9862 73.7172 38.0802 73.4893C38.1923 73.486 38.249 73.4906 38.3906 73.5046C38.4755 73.5141 38.5136 73.5492 38.5228 73.6191C38.4685 73.8527 38.4049 74.0165 38.3413 74.1802C38.3028 74.2652 38.2643 74.3502 38.1925 74.4682Z" fill="#fff"/>
<path d="M96.1084 39.8145C96.3683 39.86 96.6409 39.9615 96.9728 40.0673C96.5406 40.8553 96.3805 40.1379 96.1084 39.8145Z" fill="#fff"/>
<path d="M90.6962 25.1895C90.5072 25.5023 90.2642 25.813 89.9653 26.1244C90.1537 25.8125 90.398 25.4999 90.6962 25.1895Z" fill="#fff"/>
<path d="M15.5769 31.8106C15.3116 31.6152 15.0668 31.3591 14.8037 31.0527C15.0561 31.2516 15.3267 31.5006 15.5769 31.8106Z" fill="#000"/>
<path d="M35.7358 69.2164C35.9212 68.9188 36.1563 68.6117 36.4459 68.3047C36.2621 68.6054 36.0239 68.9062 35.7358 69.2164Z" fill="#fff"/>
<path d="M48.3823 22.9297C48.5091 23.187 48.6068 23.4826 48.6855 23.8412C48.5622 23.5921 48.4577 23.28 48.3823 22.9297Z" fill="#fff"/>
<path d="M40.0072 68.9629C39.9418 69.2748 39.8218 69.5897 39.6484 69.9244C39.7142 69.6181 39.8335 69.292 40.0072 68.9629Z" fill="#000"/>
<path d="M40.8252 24.4916C40.6378 24.3549 40.4445 24.1674 40.2554 23.9238C40.4462 24.0588 40.6327 24.2499 40.8252 24.4916Z" fill="#fff"/>
<path d="M75.2207 24.8574C75.4414 24.8776 75.6982 24.94 75.9694 25.0591C75.7415 25.0437 75.4992 24.9717 75.2207 24.8574Z" fill="#fff"/>
<path d="M39.8501 23.1945C39.6592 23.0575 39.4685 22.8691 39.2817 22.625C39.4739 22.7606 39.6622 22.9518 39.8501 23.1945Z" fill="#fff"/>
<path d="M36.5688 68.3007C36.6756 68.0814 36.8361 67.8646 37.0484 67.6426C36.9411 67.8593 36.7818 68.0813 36.5688 68.3007Z" fill="#fff"/>
<path d="M82.7915 67.7246C82.9946 67.8663 83.1984 68.0639 83.3955 68.318C83.19 68.1765 82.9911 67.9785 82.7915 67.7246Z" fill="#fff"/>
<path d="M29.0043 33.0855C28.8897 33.0797 28.7393 33.0337 28.5287 32.9911C28.4685 32.9946 28.4758 32.9837 28.4663 32.9244C28.4458 32.7812 28.4348 32.6972 28.4238 32.6133C28.6054 32.7573 28.7869 32.9012 29.0043 33.0855Z" fill="#fff"/>
<path d="M39.1591 70.9121C39.1063 71.16 39.0008 71.4195 38.8457 71.7003C38.8995 71.4556 39.0029 71.1896 39.1591 70.9121Z" fill="#000"/>
<path d="M41.29 69.9387C41.3618 69.7295 41.4871 69.5124 41.6681 69.2969C41.5971 69.5093 41.4703 69.72 41.29 69.9387Z" fill="#fff"/>
<path d="M96.0519 39.1602C96.1011 39.3202 96.0984 39.4787 96.094 39.697C96.0616 39.5574 96.0307 39.358 96.0519 39.1602Z" fill="#fff"/>
<path d="M14.635 30.9096C14.4868 30.895 14.3367 30.8295 14.1626 30.7168C14.3034 30.7326 14.4682 30.7957 14.635 30.9096Z" fill="#000"/>
<path d="M38.3984 74.1711C38.4047 74.0172 38.4683 73.8534 38.5417 73.6374C38.5515 73.585 38.6001 73.5552 38.6279 73.5488C38.5891 73.7488 38.5224 73.9551 38.3984 74.1711Z" fill="#000"/>
<path d="M11.9673 30.6602C11.8921 30.7773 11.7622 30.8805 11.5796 30.9702C11.6555 30.8532 11.784 30.7497 11.9673 30.6602Z" fill="#000"/>
<path d="M96.8493 32.9434C96.7715 33.0663 96.6416 33.1791 96.4541 33.2772C96.53 33.1528 96.6636 33.043 96.8493 32.9434Z" fill="#fff"/>
<path d="M86.9035 71.5586C86.7912 71.5046 86.6914 71.4033 86.6245 71.2754C86.7436 71.3363 86.8299 71.4238 86.9035 71.5586Z" fill="#fff"/>
<path d="M38.7026 71.9004C38.7243 72.0583 38.6866 72.2326 38.5998 72.4379C38.5815 72.2848 38.6124 72.1008 38.7026 71.9004Z" fill="#000"/>
<path d="M11.5405 35.9414C11.6899 35.9492 11.8437 36.0171 12.0255 36.1309C11.884 36.1183 11.7145 36.0599 11.5405 35.9414Z" fill="#000"/>
<path d="M49.2792 19.6221C49.1688 19.5535 49.0725 19.435 48.9844 19.2656C49.0928 19.334 49.193 19.4531 49.2792 19.6221Z" fill="#fff"/>
<path d="M41.2311 25.111C41.1131 25.0503 40.996 24.9359 40.8833 24.7676C41.0025 24.8282 41.1172 24.9428 41.2311 25.111Z" fill="#fff"/>
<path d="M40.2569 23.8121C40.1401 23.7543 40.0221 23.6434 39.9067 23.4785C40.0249 23.536 40.1403 23.6475 40.2569 23.8121Z" fill="#fff"/>
<path d="M38.2573 21.6857C38.2999 21.5467 38.3395 21.4531 38.4031 21.3027C38.4989 21.4975 38.5747 21.6518 38.6473 21.8613C38.5643 21.9234 38.4845 21.9303 38.346 21.9232C38.2762 21.8498 38.2653 21.7905 38.2573 21.6857Z" fill="#fff"/>
<path d="M77.7116 17.0625C77.7565 17.1206 77.7703 17.2035 77.7508 17.3127C77.7051 17.2551 77.6928 17.1712 77.7116 17.0625Z" fill="#fff"/>
<path d="M89.2292 26.7988C89.2077 26.898 89.1399 27.008 89.0181 27.1174C89.037 27.0143 89.1098 26.912 89.2292 26.7988Z" fill="#fff"/>
<path d="M49.9021 20.9304C49.8043 20.8923 49.7231 20.8081 49.6553 20.6758C49.752 20.7132 49.8354 20.7987 49.9021 20.9304Z" fill="#fff"/>
<path d="M50.2048 21.5841C50.1075 21.5396 50.0373 21.4527 49.9805 21.3203C50.0732 21.3638 50.1526 21.4528 50.2048 21.5841Z" fill="#fff"/>
<path d="M77.4993 17.666C77.5045 17.7783 77.463 17.9082 77.3643 18.0393C77.3556 17.9215 77.4041 17.8026 77.4993 17.666Z" fill="#fff"/>
<path d="M91.0159 24.8477C91.0011 24.9598 90.9351 25.0677 90.8179 25.1786C90.8327 25.0689 90.8988 24.9561 91.0159 24.8477Z" fill="#fff"/>
<path d="M42.562 28.6856C42.5951 28.5842 42.6797 28.4877 42.8178 28.4023C42.7855 28.5058 42.6995 28.5981 42.562 28.6856Z" fill="#fff"/>
<path d="M89.8604 26.1289C89.841 26.2333 89.7708 26.3433 89.646 26.4541C89.6641 26.3482 89.7369 26.2413 89.8604 26.1289Z" fill="#fff"/>
<path d="M89.5439 26.4629C89.5234 26.5642 89.4548 26.6749 89.3315 26.7862C89.3499 26.6819 89.4227 26.5771 89.5439 26.4629Z" fill="#fff"/>
<path d="M40.4529 67.9863C40.4644 68.0984 40.4247 68.2194 40.334 68.3478C40.3225 68.2352 40.362 68.1152 40.4529 67.9863Z" fill="#000"/>
<path d="M49.5919 20.2751C49.494 20.2386 49.4092 20.1538 49.3369 20.0195C49.4347 20.0556 49.5198 20.1412 49.5919 20.2751Z" fill="#fff"/>
<path d="M29.3312 60.5059C29.3434 60.6103 29.3117 60.7108 29.2337 60.8391C29.2207 60.7452 29.2541 60.6236 29.3312 60.5059Z" fill="#fff"/>
<path d="M28.9905 61.1504C28.9743 61.2672 28.9062 61.3859 28.7827 61.5C28.7977 61.3811 28.8682 61.2667 28.9905 61.1504Z" fill="#fff"/>
<path d="M97.3695 61.788C97.2725 61.7713 97.1694 61.701 97.0596 61.5801C97.1564 61.5977 97.2599 61.6661 97.3695 61.788Z" fill="#fff"/>
<path d="M97.0947 40.0612C97.114 39.9579 97.1837 39.8527 97.3054 39.748C97.2867 39.8522 97.2159 39.9558 97.0947 40.0612Z" fill="#fff"/>
<path d="M97.4214 39.7373C97.4412 39.6357 97.513 39.5321 97.6365 39.4277C97.6166 39.5298 97.545 39.6325 97.4214 39.7373Z" fill="#fff"/>
<path d="M97.7461 39.4157C97.7637 39.312 97.8314 39.2042 97.9525 39.0977C97.936 39.2031 97.8661 39.3074 97.7461 39.4157Z" fill="#fff"/>
<path d="M98.0688 39.088C98.0901 38.9852 98.1618 38.881 98.2857 38.7773C98.265 38.8808 98.1922 38.9837 98.0688 39.088Z" fill="#fff"/>
<path d="M96.7016 38.8281C96.6627 38.9288 96.5731 39.0218 96.4292 39.1015C96.4668 38.999 96.5588 38.9097 96.7016 38.8281Z" fill="#fff"/>
<path d="M98.3979 38.7686C98.4171 38.6657 98.4876 38.5601 98.6092 38.4531C98.59 38.5565 98.5197 38.6612 98.3979 38.7686Z" fill="#fff"/>
<path d="M97.3529 38.5098C97.313 38.6018 97.2246 38.6938 97.082 38.7761C97.12 38.6809 97.2123 38.5953 97.3529 38.5098Z" fill="#fff"/>
<path d="M11.3308 30.998C11.3019 31.1004 11.2197 31.1949 11.0859 31.2897C11.1154 31.19 11.1965 31.0901 11.3308 30.998Z" fill="#000"/>
<path d="M83.4131 68.543C83.5284 68.5788 83.6356 68.6658 83.7262 68.8079C83.6081 68.7734 83.5065 68.6838 83.4131 68.543Z" fill="#fff"/>
<path d="M94.4951 36.8095C94.5091 36.7084 94.5722 36.6016 94.6869 36.4941C94.6737 36.5969 94.609 36.7004 94.4951 36.8095Z" fill="#fff"/>
<path d="M35.4106 69.5571C35.4258 69.4602 35.4871 69.3598 35.5981 69.2617C35.5841 69.3605 35.5205 69.4571 35.4106 69.5571Z" fill="#fff"/>
<path d="M35.0928 69.8953C35.1072 69.7952 35.1697 69.6917 35.2829 69.5898C35.2693 69.6916 35.205 69.7918 35.0928 69.8953Z" fill="#fff"/>
<path d="M93.4492 35.5625C93.4198 35.6652 93.3397 35.7676 93.2051 35.8627C93.2333 35.7576 93.3159 35.66 93.4492 35.5625Z" fill="#fff"/>
<path d="M96.7983 33.9339C96.8143 33.8247 96.8834 33.7117 97.0075 33.5996C96.9922 33.7104 96.9218 33.8202 96.7983 33.9339Z" fill="#fff"/>
<path d="M97.1152 33.5995C97.1295 33.4899 97.1968 33.3794 97.3164 33.2656C97.3018 33.3744 97.235 33.4865 97.1152 33.5995Z" fill="#fff"/>
<path d="M34.7725 70.2302C34.7882 70.1288 34.8528 70.0238 34.969 69.9199C34.9542 70.0229 34.8878 70.1247 34.7725 70.2302Z" fill="#fff"/>
<path d="M34.4546 70.5653C34.47 70.4638 34.5353 70.3568 34.6537 70.25C34.6393 70.3534 34.5719 70.4565 34.4546 70.5653Z" fill="#fff"/>
<path d="M39.4516 70.2539C39.4642 70.3598 39.4287 70.4746 39.3435 70.5962C39.3302 70.4896 39.3669 70.3762 39.4516 70.2539Z" fill="#000"/>
<path d="M86.6075 70.8992C86.5098 70.8607 86.4249 70.7712 86.3516 70.6309C86.4488 70.6694 86.5345 70.7587 86.6075 70.8992Z" fill="#fff"/>
<path d="M28.3849 32.5986C28.4346 32.6975 28.4456 32.7815 28.4721 32.9272C28.4425 33.0244 28.3972 33.0599 28.2799 33.0482C28.2153 32.9057 28.2229 32.8104 28.2471 32.6453C28.2912 32.5782 28.3187 32.5809 28.3849 32.5986Z" fill="#fff"/>
<path d="M55.8209 62.6796C50.6071 59.6565 47.3058 55.3827 46.4902 49.3011C46.6876 49.2511 46.8331 49.1828 46.9791 49.182C48.357 49.1748 49.7352 49.1937 51.1128 49.1721C51.5789 49.1648 51.7777 49.3358 51.8747 49.7921C52.7898 54.0936 55.3833 56.8938 59.5305 58.29C59.7329 58.3581 59.9219 58.4722 60.1274 58.5239C61.4527 58.8576 61.4468 58.8538 61.437 60.1995C61.4277 61.4629 61.435 62.7264 61.435 64.2165C60.3705 64.0068 59.3827 63.8635 58.4248 63.6083C57.5552 63.3766 56.7181 63.023 55.8209 62.6796Z" fill="#000"/>
<path d="M52.7158 42.668C52.3883 43.6327 52.1321 44.5646 51.8072 45.4718C51.7356 45.672 51.4241 45.9114 51.2167 45.9175C49.8387 45.9585 48.4588 45.9303 47.0799 45.9478C46.5555 45.9545 46.5313 45.6978 46.5914 45.2744C47.1227 41.5343 48.8346 38.4468 51.4682 35.7435C53.0085 34.1624 54.6773 32.8807 56.7282 32.1458C58.1962 31.6198 59.727 31.2691 61.45 30.7773C61.45 32.0686 61.4616 33.084 61.4461 34.0989C61.435 34.8259 61.6294 35.716 61.2823 36.2287C60.988 36.6634 60.0357 36.6251 59.3978 36.8596C56.4593 37.9396 54.1518 39.7577 52.7158 42.668Z" fill="#000"/>
<path d="M75.9569 45.8963C75.4681 45.9067 74.9793 45.9172 74.4254 45.8395C74.2475 45.4861 74.1347 45.221 74.0218 44.9558C73.9889 44.8123 73.956 44.6687 73.9566 44.4075C73.8913 44.1335 73.7925 43.9771 73.6938 43.8207C72.5207 40.8411 70.5479 38.6004 67.5818 37.3203C66.7804 36.9744 65.9084 36.7951 65.0835 36.4983C64.8555 36.4162 64.512 36.1906 64.5075 36.0233C64.4642 34.3824 64.4814 32.7398 64.4814 30.9023C65.7385 31.1731 66.9364 31.2616 67.9908 31.6974C69.6195 32.3707 71.3007 33.0842 72.6848 34.1407C74.482 35.5125 76.026 37.2229 77.1793 39.3211C77.2554 39.5417 77.3587 39.6434 77.4619 39.7452C77.5049 39.8212 77.5479 39.8973 77.5859 40.0756C77.6751 40.3136 77.7693 40.4492 77.8635 40.5849C77.8635 40.5849 77.9122 40.642 77.9071 40.7434C77.6752 41.1267 77.4995 41.4947 77.2081 41.6683C76.8616 41.8748 76.419 41.9293 76.0119 42.0225C75.3664 42.1702 75.1508 42.524 75.4628 43.127C75.9154 44.0014 76.0551 44.9263 75.9569 45.8963Z" fill="#000"/>
<path d="M45.0643 57.0252C45.5814 57.8932 46.074 58.7057 46.5693 59.5226C43.3336 59.0547 38.6921 52.6378 38.4454 48.1441C38.1278 42.3598 41.9194 37.9026 46.617 35.5098C46.0387 36.4846 45.4991 37.3433 45.0091 38.2293C43.1982 41.5037 42.5497 45.0303 42.7318 48.7434C42.8752 51.6659 43.6259 54.4083 45.0643 57.0252Z" fill="#000"/>
<path d="M74.0252 50.1523C73.9423 49.4449 74.1938 49.1172 74.9677 49.1419C76.4171 49.1883 77.8691 49.1553 79.3205 49.1553C79.1418 56.3996 71.5676 64.1585 64.5015 64.0397C64.5015 62.9205 64.5015 61.7969 64.6062 60.6103C65.3816 60.4324 66.0604 60.3527 66.7211 60.1962C68.5845 59.7549 70.1939 58.7925 71.6176 57.5586C72.891 56.4548 74.0812 55.2237 74.7765 53.6619C75.2766 52.5386 75.5997 51.333 75.9528 50.1495C76.0884 49.695 75.8333 49.5291 75.3417 49.4693C74.6926 49.3904 74.3559 49.7191 74.0252 50.1523Z" fill="#000"/>
<path d="M80.4571 37.419C80.1492 37.0039 79.8413 36.5888 79.499 36.1273C81.1499 35.8374 85.1391 39.5484 86.4883 42.8092C88.4669 47.5916 87.4888 53.0395 82.8431 56.9178C82.9155 56.3158 83.073 55.7785 83.1795 55.2313C83.5436 53.3598 84.0228 51.4973 84.2016 49.6072C84.3495 48.0428 84.1845 46.4402 84.0588 44.8624C83.9996 44.1196 83.7654 43.3741 83.5077 42.6673C83.0378 41.3789 82.5185 40.1064 81.9593 38.8542C81.8057 38.5102 81.4375 38.2621 81.1652 37.9132C81.0536 37.7346 80.9444 37.6126 80.8358 37.4281C80.7972 37.2126 80.758 37.0596 80.7188 36.9066C80.6739 36.9097 80.629 36.9128 80.5841 36.916C80.5418 37.0836 80.4995 37.2513 80.4571 37.419Z" fill="#000"/>
<path d="M58.2697 40.7026C61.182 40.0802 63.1834 42.3979 62.8929 44.4536C62.7892 45.1874 62.4759 46.0018 61.9934 46.5435C61.4118 47.1965 60.5691 47.634 59.7945 48.0882C59.5499 48.2317 59.1521 48.1829 58.8398 48.1305C57.0434 47.8291 55.4311 45.8433 55.5075 44.0194C55.5672 42.5947 56.5784 41.1354 58.2697 40.7026Z" fill="#000"/>
<path d="M74.0022 50.2081C74.3559 49.7186 74.6926 49.3898 75.3416 49.4687C75.8333 49.5285 76.0884 49.6945 75.9528 50.1489C75.5997 51.3324 75.2766 52.538 74.7765 53.6613C74.0811 55.2231 72.891 56.4542 71.6175 57.558C70.1939 58.7919 68.5844 59.7543 66.721 60.1956C66.0604 60.3521 65.3815 60.4319 64.6342 60.549C64.5364 60.2303 64.5297 59.9075 64.4918 59.5883C64.4069 58.8734 64.7146 58.6893 65.4252 58.5407C68.3335 57.9324 70.6993 56.38 72.3225 53.889C73.0397 52.7883 73.4369 51.4791 74.0022 50.2081Z" fill="#000"/>
<path d="M81.1681 37.9688C81.4379 38.2609 81.8061 38.509 81.9597 38.853C82.5189 40.1052 83.0382 41.3777 83.508 42.6661C83.7658 43.3729 84 44.1184 84.0592 44.8612C84.1849 46.4389 84.3499 48.0416 84.2019 49.606C84.0232 51.4961 83.544 53.3586 83.1799 55.2301C83.0734 55.7773 82.9159 56.3146 82.787 56.9232C81.6715 57.9437 80.5508 58.8973 79.43 59.851C79.3479 59.7858 79.2657 59.7206 79.1836 59.6554C83.5855 53.2664 84.4103 46.4994 81.4431 39.2095C81.3659 38.9884 81.271 38.8878 81.1761 38.7872C81.1484 38.7386 81.1206 38.6901 81.1162 38.5285C81.1424 38.273 81.1454 38.1306 81.1533 37.9832C81.1582 37.9784 81.1681 37.9688 81.1681 37.9688Z" fill="#000"/>
<path d="M76.0312 45.9186C76.0555 44.9269 75.9159 44.002 75.4633 43.1276C75.1513 42.5247 75.3669 42.1709 76.0123 42.0231C76.4195 41.9299 76.862 41.8754 77.2085 41.669C77.5 41.4954 77.6756 41.1274 77.9126 40.7812C78.2149 41.3806 78.5738 42.024 78.7825 42.7128C79.045 43.5792 79.1906 44.4816 79.375 45.3708C79.4798 45.8759 79.1673 45.9574 78.763 45.9527C77.8771 45.9422 76.991 45.9437 76.0312 45.9186Z" fill="#000"/>
<path d="M56.2461 52.1104C55.4344 51.8214 55.0877 51.2982 55.1596 50.4927C55.2248 49.7622 55.72 49.4032 56.3268 49.2233C56.9522 49.0379 57.5664 49.282 57.8352 49.8414C58.0443 50.2769 58.1442 50.9137 57.9823 51.3444C57.727 52.0237 57.0536 52.2505 56.2461 52.1104Z" fill="#000"/>
<path d="M74.0049 45.0195C74.1351 45.2216 74.2479 45.4868 74.3569 45.8147C74.2312 45.6125 74.1094 45.3476 74.0049 45.0195Z" fill="#C7C7"/>
<path d="M80.4561 37.4437C80.4997 37.251 80.542 37.0833 80.5843 36.9156C80.6292 36.9125 80.6741 36.9094 80.719 36.9062C80.7582 37.0592 80.7974 37.2122 80.8347 37.4291C80.8328 37.4929 80.8305 37.4952 80.775 37.4938C80.6454 37.4935 80.5713 37.4945 80.4972 37.4955C80.4972 37.4955 80.4548 37.4687 80.4561 37.4437Z" fill="#000"/>
<path d="M73.6787 43.8789C73.7927 43.9779 73.8915 44.1343 73.9675 44.3537C73.8509 44.2565 73.7572 44.0964 73.6787 43.8789Z" fill="#C7C7"/>
<path d="M80.8344 37.4922C80.9449 37.6128 81.054 37.7348 81.1657 37.9135C81.1682 37.9702 81.1583 37.9798 81.0944 37.9843C80.9514 37.9898 80.8724 37.9906 80.7934 37.9914C80.7934 37.9914 80.7647 37.9544 80.7906 37.8647C80.8212 37.6819 80.826 37.5888 80.8307 37.4958C80.8307 37.4958 80.8331 37.4935 80.8344 37.4922Z" fill="#000"/>
<path d="M80.7856 38.0488C80.8723 37.9897 80.9513 37.9888 81.0893 37.9883C81.1454 38.1311 81.1424 38.2736 81.1254 38.4863C81.0002 38.4067 80.8891 38.2569 80.7856 38.0488Z" fill="#C7C7"/>
<path d="M77.8814 40.532C77.7697 40.4509 77.6755 40.3152 77.5903 40.123C77.6992 40.2035 77.799 40.3405 77.8814 40.532Z" fill="#C7C7"/>
<path d="M77.4701 39.6917C77.3589 39.6439 77.2557 39.5422 77.1763 39.3789C77.2927 39.4242 77.3853 39.5309 77.4701 39.6917Z" fill="#C7C7"/>
<path d="M81.1748 38.8418C81.271 38.8891 81.3659 38.9897 81.4477 39.1492C81.3476 39.1038 81.2606 38.9994 81.1748 38.8418Z" fill="#C7C7"/>
<path d="M80.7751 37.4942C80.8259 37.5886 80.8211 37.6817 80.8 37.843C80.6851 37.8105 80.5866 37.7097 80.4927 37.5523C80.5714 37.4948 80.6455 37.4938 80.7751 37.4942Z" fill="#C7C7"/>
<path d="M62.2977 12.8531C61.4202 12.3005 61.2097 11.7104 61.5834 10.9908C61.9646 10.2564 62.7055 9.9586 63.4656 10.2341C64.1245 10.4729 64.4827 11.2809 64.2666 12.0407C64.0461 12.8161 63.1302 13.2147 62.2977 12.8531Z" fill="#000"/>
<path d="M63.7212 84.7089C63.0807 84.9814 62.4849 85.0894 61.9543 84.6223C61.2465 83.9994 61.2104 83.1942 61.8366 82.5341C62.4264 81.9125 63.3331 81.9016 63.9325 82.5089C64.5648 83.1495 64.5005 83.9818 63.7212 84.7089Z" fill="#000"/>
<path d="M81.2483 72.9372C82.5361 72.5056 83.1212 72.8367 83.1404 73.927C83.1496 74.4487 83.034 74.9557 82.4935 75.0769C82.1208 75.1605 81.6145 75.1041 81.3035 74.9018C80.826 74.5911 80.688 74.0451 80.9361 73.4754C81.011 73.3036 81.1089 73.1418 81.2483 72.9372Z" fill="#000"/>
<path d="M81.071 21.6637C80.6699 21.0564 80.7839 20.5088 81.3001 20.2158C81.6611 20.0109 82.2377 19.9414 82.6212 20.0799C83.1517 20.2714 83.1998 20.8346 83.0953 21.3848C82.9819 21.9817 82.6379 22.4458 82.0723 22.4356C81.7409 22.4296 81.4175 21.9757 81.071 21.6637Z" fill="#000"/>
<path d="M44.9278 20.8344C44.9012 21.1014 44.9188 21.353 44.8039 21.5033C44.5328 21.8579 44.2452 22.3297 43.8742 22.4341C43.6128 22.5077 43.06 22.1328 42.8931 21.8211C42.6288 21.3277 42.4582 20.7215 43.0233 20.2167C43.6761 19.6335 44.4801 19.859 44.9278 20.8344Z" fill="#000"/>
<path d="M43.7004 75.1655C42.787 74.9099 42.5441 74.5067 42.6684 73.7012C42.7794 72.9826 43.2087 72.667 43.879 72.7087C44.571 72.7518 44.92 73.211 44.9632 73.8778C45.0118 74.629 44.5988 75.0558 43.7004 75.1655Z" fill="#000"/>
<path d="M12.3989 63.626C11.9896 63.1467 11.9014 62.6273 12.3791 62.326C12.7008 62.1231 13.2771 62.0947 13.6257 62.2477C13.8428 62.3429 14.0171 62.9814 13.9147 63.2717C13.6582 63.9987 13.0319 63.8983 12.3989 63.626Z" fill="#000"/>
<path d="M3.60838 47.3945C4.46142 47.4483 4.67852 48.0137 4.55911 48.6328C4.49717 48.9538 4.11527 49.3376 3.79111 49.4566C3.19106 49.6769 2.74 49.2132 2.68364 48.7081C2.62203 48.1561 2.78413 47.5245 3.60838 47.3945Z" fill="#000"/>
<path d="M112.171 63.4528C112.135 63.0095 112.038 62.5361 112.213 62.2073C112.321 62.0048 112.89 61.8808 113.171 61.9717C113.786 62.1706 113.961 62.7518 113.669 63.2298C113.291 63.8499 112.871 63.9236 112.171 63.4528Z" fill="#000"/>
<path d="M113.173 32.3498C113.428 32.7201 113.802 33.0751 113.779 33.4028C113.759 33.6874 113.336 34.0598 113.012 34.1815C112.477 34.3821 111.965 33.931 111.92 33.3467C111.871 32.7155 112.31 32.3406 113.173 32.3498Z" fill="#000"/>
<path d="M122.915 48.2731C122.933 48.9483 122.567 49.3689 122.017 49.422C121.721 49.4505 121.136 49.091 121.12 48.875C121.087 48.4041 121.202 47.7991 121.497 47.457C121.933 46.9521 122.459 47.271 122.915 48.2731Z" fill="#000"/>
<path d="M6.41615 57.8655C5.91634 57.5875 5.55453 57.231 5.7569 56.6906C5.86182 56.4104 6.14979 56.1059 6.42615 56.0027C6.95997 55.8033 7.59582 56.2889 7.65207 56.8422C7.70577 57.3705 7.20186 57.8134 6.41615 57.8655Z" fill="#000"/>
<path d="M5.74429 39.5346C6.05048 38.9494 6.47631 38.5833 7.02801 38.9866C7.32055 39.2005 7.58162 39.7111 7.54828 40.0581C7.49729 40.5889 7.00859 40.8392 6.45909 40.7114C5.8888 40.5788 5.61688 40.1994 5.74429 39.5346Z" fill="#000"/>
<path d="M119.24 57.6636C118.639 57.6757 118.15 57.5004 118.156 56.9133C118.16 56.595 118.455 56.0625 118.694 56.0155C119.055 55.9448 119.639 56.0942 119.848 56.3657C120.308 56.9625 119.887 57.3861 119.24 57.6636Z" fill="#000"/>
<path d="M119.646 39.0588C120.066 39.4891 120.245 39.9638 119.765 40.3302C119.479 40.5482 118.975 40.6905 118.648 40.5948C118.203 40.4642 117.997 40.0112 118.14 39.4874C118.3 38.9011 118.952 38.6885 119.646 39.0588Z" fill="#000"/>
<path d="M12.0591 33.2797C12.2264 32.6502 12.5438 32.1886 13.1804 32.3452C13.4912 32.4216 13.9097 32.7954 13.9432 33.0749C13.9838 33.4139 13.748 34.0089 13.4885 34.1046C13.1659 34.2235 12.6838 33.9769 12.2981 33.8204C12.1707 33.7686 12.1288 33.5064 12.0591 33.2797Z" fill="#000"/>
<path d="M93.8366 28.5742C94.2506 28.6224 94.6634 28.6593 94.9784 28.8542C95.09 28.9232 95.0606 29.445 94.9244 29.6412C94.6689 30.0089 94.2608 30.2014 93.8341 29.8408C93.3858 29.4618 93.3188 29.0453 93.8366 28.5742Z" fill="#000"/>
<path d="M32.2737 29.4085C31.9448 29.6292 31.6592 29.9163 31.3524 29.9409C31.1807 29.9547 30.8447 29.5473 30.8189 29.3045C30.7922 29.054 30.9847 28.6805 31.1999 28.524C31.6892 28.1684 32.1562 28.5443 32.2737 29.4085Z" fill="#000"/>
<path d="M94.4229 65.0977C94.9735 65.3818 95.3468 65.7556 94.9294 66.3022C94.7634 66.5197 94.2947 66.6909 94.0508 66.6125C93.8021 66.5327 93.4455 66.0118 93.5146 65.8751C93.6774 65.5527 94.0653 65.3439 94.4229 65.0977Z" fill="#000"/>
<path d="M30.7939 66.132C30.9304 65.761 31.0243 65.3969 31.2521 65.1633C31.3541 65.0588 31.788 65.1378 31.9567 65.2747C32.1564 65.4367 32.3782 65.7892 32.3257 65.9901C32.258 66.2498 31.9371 66.6088 31.7095 66.6204C31.4164 66.6355 31.1079 66.3488 30.7939 66.132Z" fill="#000"/>
<path d="M28.4659 62.3949C28.4167 62.3561 28.3812 62.308 28.3457 62.2598C28.3829 62.265 28.4202 62.2703 28.478 62.3169C28.4986 62.3583 28.4795 62.3854 28.4659 62.3949Z" fill="#fff"/>
</svg>
