<svg xmlns="http://www.w3.org/2000/svg" width="22" height="23" viewBox="0 0 22 23" fill="none">
  <path d="M3 15.1816C1.89543 15.1816 1 14.2862 1 13.1816C1 12.0771 1.89543 11.1816 3 11.1816" stroke="white" stroke-width="1.5" stroke-linecap="round" stroke-linejoin="round"/>
  <path d="M19 15.1816C20.1046 15.1816 21 14.2862 21 13.1816C21 12.0771 20.1046 11.1816 19 11.1816" stroke="white" stroke-width="1.5" stroke-linecap="round" stroke-linejoin="round"/>
  <path d="M6 6.68164L6 3.68164" stroke="white" stroke-width="1.5" stroke-linejoin="round"/>
  <path d="M16 6.68164L16 3.68164" stroke="white" stroke-width="1.5" stroke-linejoin="round"/>
  <circle cx="6" cy="2.68164" r="1" stroke="white" stroke-width="1.5" stroke-linejoin="round"/>
  <circle cx="16" cy="2.68164" r="1" stroke="white" stroke-width="1.5" stroke-linejoin="round"/>
  <path d="M12.5 6.68164H9.5C6.67157 6.68164 5.25736 6.68164 4.37868 7.59062C3.5 8.4996 3.5 9.96258 3.5 12.8885C3.5 15.8145 3.5 17.2775 4.37868 18.1865C5.25736 19.0954 6.67157 19.0954 9.5 19.0954H10.5253C11.3169 19.0954 11.5962 19.2589 12.1417 19.8529C12.745 20.5099 13.6791 21.3866 14.5242 21.5908C15.7254 21.881 15.8599 21.4795 15.5919 20.3348C15.5156 20.0086 15.3252 19.4872 15.526 19.1834C15.6385 19.0133 15.8259 18.9714 16.2008 18.8877C16.7922 18.7557 17.2798 18.5397 17.6213 18.1865C18.5 17.2775 18.5 15.8145 18.5 12.8885C18.5 9.96258 18.5 8.4996 17.6213 7.59062C16.7426 6.68164 15.3284 6.68164 12.5 6.68164Z" stroke="white" stroke-width="1.5" stroke-linejoin="round"/>
  <path d="M8.5 14.6816C9.07008 15.2889 9.97771 15.6816 11 15.6816C12.0223 15.6816 12.9299 15.2889 13.5 14.6816" stroke="white" stroke-width="1.5" stroke-linecap="round" stroke-linejoin="round"/>
  <path d="M8.00896 10.6816H8" stroke="white" stroke-width="2" stroke-linecap="round" stroke-linejoin="round"/>
  <path d="M14.009 10.6816H14" stroke="white" stroke-width="2" stroke-linecap="round" stroke-linejoin="round"/>
</svg>
