<svg fill="none" viewBox="0 0 24 24" xmlns="http://www.w3.org/2000/svg">
 
  <g clip-rule="evenodd" fill="#3b82f6" fill-rule="evenodd">
    <path d="m12 22c5.5228 0 10-4.4772 10-10 0-5.52285-4.4772-10-10-10-5.52285 0-10 4.47715-10 10 0 5.5228 4.47715 10 10 10zm5.3536-12.64645c.1952-.19526.1952-.51184 0-.7071-.1953-.19527-.5119-.19527-.7072 0l-5.6464 5.64645-2.64645-2.6465c-.19526-.1952-.51184-.1952-.7071 0-.19527.1953-.19527.5119 0 .7072l2.99995 3c.0938.0937.221.1464.3536.1464s.2598-.0527.3536-.1464z"/>
    <path d="m17.3536 9.35355c.1952-.19526.1952-.51184 0-.7071-.1953-.19527-.5119-.19527-.7072 0l-5.6464 5.64645-2.64645-2.6465c-.19526-.1952-.51184-.1952-.7071 0-.19527.1953-.19527.5119 0 .7072l2.99995 3c.0938.0937.221.1464.3536.1464s.2598-.0527.3536-.1464zm4.6464 2.64645c0 5.5228-4.4772 10-10 10-5.52285 0-10-4.4772-10-10 0-5.52285 4.47715-10 10-10 5.5228 0 10 4.47715 10 10z"/>
  </g>
</svg>