<svg width="24" height="25" viewBox="0 0 24 25" fill="none" xmlns="http://www.w3.org/2000/svg">
<path d="M11 2.68164H10C6.72077 2.68164 5.08116 2.68164 3.91891 3.49546C3.48891 3.79655 3.1149 4.17055 2.81382 4.60055C2 5.7628 2 7.40241 2 10.6816C2 13.9609 2 15.6005 2.81382 16.7627C3.1149 17.1927 3.48891 17.5667 3.91891 17.8678C5.08116 18.6816 6.72077 18.6816 10 18.6816H14C17.2792 18.6816 18.9188 18.6816 20.0811 17.8678C20.5111 17.5667 20.8851 17.1927 21.1862 16.7627C21.8652 15.793 21.9777 14.491 21.9963 12.1816" stroke="white" stroke-width="1.5" stroke-linecap="round"/>
<path d="M13 7.34831C13 8.63697 14.0074 9.68164 15.25 9.68164H19.975C21.0934 9.68164 22 8.74144 22 7.58164C22 6.42184 21.0833 5.48167 19.9649 5.48167C20.0897 4.04597 18.9799 2.68164 17.5 2.68164C16.2055 2.68164 15.143 3.71233 15.0342 5.02557C13.8928 5.13821 13 6.13513 13 7.34831Z" stroke="white" stroke-width="1.5" stroke-linecap="round" stroke-linejoin="round"/>
<path d="M11 15.6816H13" stroke="white" stroke-width="1.5" stroke-linecap="round" stroke-linejoin="round"/>
<path d="M12 18.6816V22.6816" stroke="white" stroke-width="1.5"/>
<path d="M8 22.6816H16" stroke="white" stroke-width="1.5" stroke-linecap="round"/>
</svg>
