<svg width="24" height="25" viewBox="0 0 24 25" fill="none" xmlns="http://www.w3.org/2000/svg">
<path d="M14 2.68164H10C6.72077 2.68164 5.08116 2.68164 3.91891 3.49546C3.48891 3.79655 3.1149 4.17055 2.81382 4.60055C2 5.7628 2 7.40241 2 10.6816C2 13.9609 2 15.6005 2.81382 16.7627C3.1149 17.1927 3.48891 17.5667 3.91891 17.8678C5.08116 18.6816 6.72077 18.6816 10 18.6816H14C17.2792 18.6816 18.9188 18.6816 20.0811 17.8678C20.5111 17.5667 20.8851 17.1927 21.1862 16.7627C22 15.6005 22 13.9609 22 10.6816C22 7.40241 22 5.7628 21.1862 4.60055C20.8851 4.17055 20.5111 3.79655 20.0811 3.49546C18.9188 2.68164 17.2792 2.68164 14 2.68164Z" stroke="white" strokeWidth="1.5" strokeLinecap="round"/>
<path d="M16 8.68164L17.2265 9.73883C17.7422 10.1833 18 10.4055 18 10.6816C18 10.9578 17.7422 11.18 17.2265 11.6244L16 12.6816" stroke="white" strokeWidth="1.5" strokeLinecap="round" stroke-linejoin="round"/>
<path d="M8 8.68164L6.77346 9.73883C6.25782 10.1833 6 10.4055 6 10.6816C6 10.9578 6.25782 11.18 6.77346 11.6244L8 12.6816" stroke="white" strokeWidth="1.5" strokeLinecap="round" stroke-linejoin="round"/>
<path d="M13 7.68164L11 13.6816" stroke="white" strokeWidth="1.5" strokeLinecap="round" stroke-linejoin="round"/>
<path d="M14.6557 22.6816L14.2369 22.2628C13.2926 21.3185 13.0585 19.876 13.6557 18.6816" stroke="white" strokeWidth="1.5" strokeLinecap="round"/>
<path d="M9.00051 22.6816L9.41937 22.2628C10.3636 21.3185 10.5977 19.876 10.0005 18.6816" stroke="white" strokeWidth="1.5" strokeLinecap="round"/>
<path d="M7 22.6816H17" stroke="white" strokeWidth="1.5" strokeLinecap="round"/>
</svg>
