

<svg xmlns="http://www.w3.org/2000/svg" width="57" height="57" viewBox="0 0 57 57" fill="none">
  <mask id="mask0_2250_190" style="mask-type:luminance" maskUnits="userSpaceOnUse" x="0" y="0" width="57" height="57">
    <path d="M0.5 28.6816C0.5 44.1456 13.036 56.6816 28.5 56.6816C43.964 56.6816 56.5 44.1456 56.5 28.6816C56.5 13.2177 43.964 0.681641 28.5 0.681641C13.036 0.681641 0.5 13.2177 0.5 28.6816Z" fill="white"/>
  </mask>
  <g mask="url(#mask0_2250_190)">
    <path d="M0.5 28.6816C0.5 44.1456 13.036 56.6816 28.5 56.6816C43.964 56.6816 56.5 44.1456 56.5 28.6816C56.5 13.2177 43.964 0.681641 28.5 0.681641C13.036 0.681641 0.5 13.2177 0.5 28.6816Z" fill="#050505"/>
    <g filter="url(#filter0_d_2250_190)">
      <path d="M4.33594 28.6816C4.33594 41.9365 15.0811 52.6816 28.3359 52.6816C41.5908 52.6816 52.3359 41.9365 52.3359 28.6816C52.3359 15.4268 41.5908 4.68164 28.3359 4.68164C15.0811 4.68164 4.33594 15.4268 4.33594 28.6816Z" fill="#101114"/>
      <path d="M28.3359 36.1816V20.4316V36.1816ZM22.3359 30.9316L28.3359 36.9316L34.3359 30.9316" fill="#090A0D"/>
      <path d="M28.3359 36.1816V20.4316M22.3359 30.9316L28.3359 36.9316L34.3359 30.9316" stroke="white" stroke-width="2" stroke-linecap="round" stroke-linejoin="round"/>
    </g>
  </g>
  <defs>
    <filter id="filter0_d_2250_190" x="-13.6641" y="-7.31836" width="96" height="96" filterUnits="userSpaceOnUse" color-interpolation-filters="sRGB">
      <feFlood flood-opacity="0" result="BackgroundImageFix"/>
      <feColorMatrix in="SourceAlpha" type="matrix" values="0 0 0 0 0 0 0 0 0 0 0 0 0 0 0 0 0 0 127 0" result="hardAlpha"/>
      <feOffset dx="6" dy="12"/>
      <feGaussianBlur stdDeviation="12"/>
      <feComposite in2="hardAlpha" operator="out"/>
      <feColorMatrix type="matrix" values="0 0 0 0 0.0862745 0 0 0 0 0.0901961 0 0 0 0 0.0941176 0 0 0 0.06 0"/>
      <feBlend mode="normal" in2="BackgroundImageFix" result="effect1_dropShadow_2250_190"/>
      <feBlend mode="normal" in="SourceGraphic" in2="effect1_dropShadow_2250_190" result="shape"/>
    </filter>
  </defs>
</svg>




