<svg width="181" height="181" viewBox="0 0 181 181" fill="none" xmlns="http://www.w3.org/2000/svg">
<g filter="url(#filter0_bd_421_4604)">
<rect x="30.5" y="26.6816" width="120" height="120" rx="60" fill="white" shape-rendering="crispEdges"/>
<path d="M68.5616 98.0768C67.9515 98.687 67.9515 99.6763 68.5616 100.286C69.1718 100.897 70.1612 100.897 70.7714 100.286L68.5616 98.0768ZM85.0786 89.0113L84.1025 90.2315L85.0786 89.0113ZM89.4942 92.5438L88.5181 93.7639V93.7639L89.4942 92.5438ZM95.2113 92.0583L94.0435 91.0203L95.2113 92.0583ZM110.418 77.303C110.991 76.6581 110.933 75.6705 110.288 75.0971C109.643 74.5238 108.655 74.5819 108.082 75.2269L110.418 77.303ZM92.5164 94.2284L92.6486 95.7853H92.6486L92.5164 94.2284ZM82.2059 87.3932L82.2923 88.9533L82.2923 88.9533L82.2059 87.3932ZM103 72.6191C102.137 72.6191 101.437 73.3187 101.437 74.1816C101.437 75.0446 102.137 75.7441 103 75.7441V72.6191ZM109.771 82.515C109.771 83.3779 110.47 84.0775 111.333 84.0775C112.196 84.0775 112.896 83.3779 112.896 82.515H109.771ZM110.723 74.7918L111.828 73.687V73.687L110.723 74.7918ZM75.9165 76.7858C75.0536 76.7858 74.354 77.4854 74.354 78.3483C74.354 79.2113 75.0536 79.9108 75.9165 79.9108V76.7858ZM88.4165 79.9108C89.2794 79.9108 89.979 79.2113 89.979 78.3483C89.979 77.4854 89.2794 76.7858 88.4165 76.7858V79.9108ZM70.7714 100.286L80.6343 90.4235L78.4246 88.2138L68.5616 98.0768L70.7714 100.286ZM84.1025 90.2315L88.5181 93.7639L90.4703 91.3237L86.0547 87.7912L84.1025 90.2315ZM96.3791 93.0964L110.418 77.303L108.082 75.2269L94.0435 91.0203L96.3791 93.0964ZM88.5181 93.7639C89.2158 94.3221 89.8569 94.839 90.4345 95.1883C91.0507 95.5609 91.7767 95.8594 92.6486 95.7853L92.3842 92.6715C92.3829 92.6716 92.3828 92.6716 92.3835 92.6716C92.3842 92.6716 92.3846 92.6717 92.3842 92.6716C92.3841 92.6716 92.3753 92.6707 92.355 92.6645C92.31 92.6508 92.2164 92.6138 92.0515 92.5142C91.6908 92.296 91.235 91.9355 90.4703 91.3237L88.5181 93.7639ZM94.0435 91.0203C93.3928 91.7523 93.0043 92.1845 92.6855 92.4603C92.5399 92.5864 92.4539 92.6386 92.4118 92.6597C92.3928 92.6692 92.3843 92.6716 92.3842 92.6716C92.3838 92.6717 92.3841 92.6716 92.3849 92.6715C92.3856 92.6714 92.3855 92.6714 92.3842 92.6715L92.6486 95.7853C93.5205 95.7113 94.1857 95.2947 94.7303 94.8236C95.2407 94.3819 95.7855 93.7642 96.3791 93.0964L94.0435 91.0203ZM80.6343 90.4235C81.2908 89.767 81.68 89.3821 81.9953 89.1385C82.1389 89.0275 82.2227 88.9821 82.2637 88.9639C82.2823 88.9556 82.2909 88.9535 82.2915 88.9533C82.2916 88.9533 82.291 88.9533 82.2923 88.9533L82.1195 85.833C81.285 85.8793 80.6304 86.2439 80.0846 86.6657C79.574 87.0602 79.0224 87.616 78.4246 88.2138L80.6343 90.4235ZM86.0547 87.7912C85.3945 87.2631 84.7849 86.7716 84.2339 86.4358C83.6449 86.077 82.954 85.7868 82.1195 85.833L82.2923 88.9533C82.2937 88.9532 82.293 88.9532 82.2932 88.9532C82.2937 88.9533 82.3025 88.9545 82.3219 88.9606C82.3647 88.9742 82.453 89.0101 82.608 89.1045C82.9483 89.3119 83.3776 89.6515 84.1025 90.2315L86.0547 87.7912ZM103 75.7441H107.167V72.6191H103V75.7441ZM109.771 78.3483V82.515H112.896V78.3483H109.771ZM107.167 75.7441C108.193 75.7441 108.805 75.7475 109.244 75.8065C109.445 75.8335 109.546 75.8654 109.592 75.8841C109.602 75.8884 109.609 75.8917 109.613 75.8939C109.617 75.8959 109.619 75.8971 109.619 75.8972C109.619 75.8973 109.619 75.897 109.618 75.8964C109.617 75.8958 109.617 75.8957 109.618 75.8967L111.828 73.687C111.184 73.0432 110.401 72.8089 109.661 72.7093C108.965 72.6158 108.104 72.6191 107.167 72.6191V75.7441ZM112.896 78.3483C112.896 77.4104 112.899 76.5498 112.805 75.8541C112.706 75.1135 112.472 74.3308 111.828 73.687L109.618 75.8967C109.619 75.8976 109.619 75.8977 109.618 75.897C109.618 75.8962 109.618 75.8957 109.618 75.8959C109.618 75.896 109.619 75.8978 109.621 75.9018C109.623 75.9058 109.626 75.9127 109.631 75.9232C109.649 75.9686 109.681 76.0694 109.708 76.2705C109.767 76.7095 109.771 77.322 109.771 78.3483H112.896ZM75.9165 79.9108H88.4165V76.7858H75.9165V79.9108Z" fill="#050505"/>
</g>
<defs>
<filter id="filter0_bd_421_4604" x="0.5" y="0.681641" width="180" height="180" filterUnits="userSpaceOnUse" color-interpolation-filters="sRGB">
<feFlood flood-opacity="0" result="BackgroundImageFix"/>
<feGaussianBlur in="BackgroundImageFix" stdDeviation="7.5"/>
<feComposite in2="SourceAlpha" operator="in" result="effect1_backgroundBlur_421_4604"/>
<feColorMatrix in="SourceAlpha" type="matrix" values="0 0 0 0 0 0 0 0 0 0 0 0 0 0 0 0 0 0 127 0" result="hardAlpha"/>
<feOffset dy="4"/>
<feGaussianBlur stdDeviation="15"/>
<feComposite in2="hardAlpha" operator="out"/>
<feColorMatrix type="matrix" values="0 0 0 0 0.2 0 0 0 0 0.2 0 0 0 0 0.2 0 0 0 0.1 0"/>
<feBlend mode="normal" in2="effect1_backgroundBlur_421_4604" result="effect2_dropShadow_421_4604"/>
<feBlend mode="normal" in="SourceGraphic" in2="effect2_dropShadow_421_4604" result="shape"/>
</filter>
</defs>
</svg>
