<svg width="181" height="181" viewBox="0 0 181 181" fill="none" xmlns="http://www.w3.org/2000/svg">
<g filter="url(#filter0_bd_421_4610)">
<rect x="30.5" y="26.6816" width="120" height="120" rx="60" fill="url(#paint0_linear_421_4610)" fill-opacity="1" shape-rendering="crispEdges"/>
<path d="M94.6665 82.515L108.208 68.9734M109.044 78.3483L109.239 70.0639C109.263 69.0608 109.275 68.5592 108.967 68.2454C108.659 67.9316 108.156 67.9316 107.148 67.9316H98.8332" stroke="white" strokeWidth="3.125" strokeLinecap="round" stroke-linejoin="round"/>
<path d="M86.3332 82.5151L72.7916 68.9735M82.1667 67.9316H73.8333C72.8512 67.9316 72.3602 67.9316 72.0551 68.2367C71.75 68.5418 71.75 69.0329 71.75 70.015V78.3483" stroke="white" strokeWidth="3.125" strokeLinecap="round" stroke-linejoin="round"/>
<path d="M86.3333 90.8477L72.7916 104.389M71.75 95.0142V103.348C71.75 104.33 71.75 104.821 72.0551 105.126C72.3602 105.431 72.8512 105.431 73.8333 105.431H82.1667" stroke="white" strokeWidth="3.125" strokeLinecap="round" stroke-linejoin="round"/>
<path d="M94.6665 90.8477L108.208 104.389M98.8333 105.431H107.167C108.149 105.431 108.64 105.431 108.945 105.126C109.25 104.821 109.25 104.33 109.25 103.348V95.0142" stroke="white" strokeWidth="3.125" strokeLinecap="round" stroke-linejoin="round"/>
</g>
<defs>
<filter id="filter0_bd_421_4610" x="0.5" y="0.681641" width="180" height="180" filterUnits="userSpaceOnUse" color-interpolation-filters="sRGB">
<feFlood flood-opacity="0" result="BackgroundImageFix"/>
<feGaussianBlur in="BackgroundImageFix" stdDeviation="10"/>
<feComposite in2="SourceAlpha" operator="in" result="effect1_backgroundBlur_421_4610"/>
<feColorMatrix in="SourceAlpha" type="matrix" values="0 0 0 0 0 0 0 0 0 0 0 0 0 0 0 0 0 0 127 0" result="hardAlpha"/>
<feOffset dy="4"/>
<feGaussianBlur stdDeviation="15"/>
<feComposite in2="hardAlpha" operator="out"/>
<feColorMatrix type="matrix" values="0 0 0 0 0.2 0 0 0 0 0.2 0 0 0 0 0.2 0 0 0 0.1 0"/>
<feBlend mode="normal" in2="effect1_backgroundBlur_421_4610" result="effect2_dropShadow_421_4610"/>
<feBlend mode="normal" in="SourceGraphic" in2="effect2_dropShadow_421_4610" result="shape"/>
</filter>
<linearGradient id="paint0_linear_421_4610" x1="53.3571" y1="26.6817" x2="175.902" y2="49.2083" gradientUnits="userSpaceOnUse">
<stop stop-color="#1D50ED" stop-opacity="0.29"/>
<stop offset="1" stop-color="#87B5F4" stop-opacity="0.67"/>
</linearGradient>
</defs>
</svg>
