<svg width="181" height="181" viewBox="0 0 181 181" fill="none" xmlns="http://www.w3.org/2000/svg">
<g filter="url(#filter0_bd_421_4616)">
<rect x="30.5" y="26.6816" width="120" height="120" rx="60" fill="white" shape-rendering="crispEdges"/>
<path d="M71.75 90.8477V84.5977C71.75 74.2423 80.1447 65.8477 90.5 65.8477C100.855 65.8477 109.25 74.2423 109.25 84.5977V94.6938C109.25 98.8778 109.25 100.97 108.516 102.601C107.68 104.458 106.194 105.944 104.337 106.78C102.706 107.514 100.614 107.514 96.4295 107.514H90.5" stroke="#050505" strokeWidth="3.125" strokeLinecap="round" stroke-linejoin="round"/>
<path d="M96.75 86.6823C96.75 84.3811 98.6155 82.5156 100.917 82.5156C105.519 82.5156 109.25 86.2466 109.25 90.849C109.25 95.4513 105.519 99.1823 100.917 99.1823C98.6155 99.1823 96.75 97.3168 96.75 95.0156V86.6823Z" stroke="#050505" strokeWidth="3.125"/>
<path d="M84.25 86.6823C84.25 84.3811 82.3845 82.5156 80.0833 82.5156C75.481 82.5156 71.75 86.2466 71.75 90.849C71.75 95.4513 75.481 99.1823 80.0833 99.1823C82.3845 99.1823 84.25 97.3168 84.25 95.0156V86.6823Z" stroke="#050505" strokeWidth="3.125"/>
</g>
<defs>
<filter id="filter0_bd_421_4616" x="0.5" y="0.681641" width="180" height="180" filterUnits="userSpaceOnUse" color-interpolation-filters="sRGB">
<feFlood flood-opacity="0" result="BackgroundImageFix"/>
<feGaussianBlur in="BackgroundImageFix" stdDeviation="7.5"/>
<feComposite in2="SourceAlpha" operator="in" result="effect1_backgroundBlur_421_4616"/>
<feColorMatrix in="SourceAlpha" type="matrix" values="0 0 0 0 0 0 0 0 0 0 0 0 0 0 0 0 0 0 127 0" result="hardAlpha"/>
<feOffset dy="4"/>
<feGaussianBlur stdDeviation="15"/>
<feComposite in2="hardAlpha" operator="out"/>
<feColorMatrix type="matrix" values="0 0 0 0 0.2 0 0 0 0 0.2 0 0 0 0 0.2 0 0 0 0.1 0"/>
<feBlend mode="normal" in2="effect1_backgroundBlur_421_4616" result="effect2_dropShadow_421_4616"/>
<feBlend mode="normal" in="SourceGraphic" in2="effect2_dropShadow_421_4616" result="shape"/>
</filter>
</defs>
</svg>
